<mxfile host="Electron" modified="2024-04-24T12:03:18.691Z" agent="Mozilla/5.0 (Windows NT 10.0; Win64; x64) AppleWebKit/537.36 (KHTML, like Gecko) draw.io/24.2.5 Chrome/120.0.6099.109 Electron/28.1.0 Safari/537.36" etag="f_4o6WH7ljtc7r9ZVDhY" version="24.2.5" type="device">
  <diagram name="Page-1" id="4-BrHYajE8dog6LxYz48">
    <mxGraphModel dx="1222" dy="812" grid="0" gridSize="10" guides="1" tooltips="1" connect="1" arrows="1" fold="1" page="0" pageScale="1" pageWidth="1920" pageHeight="1200" background="#f9f9f9" math="0" shadow="0">
      <root>
        <mxCell id="0" />
        <mxCell id="1" parent="0" />
        <mxCell id="sMQmqNVfr5RTIaXLuekj-1" value="" style="shape=image;verticalLabelPosition=bottom;labelBackgroundColor=default;verticalAlign=top;aspect=fixed;imageAspect=0;image=data:image/png,iVBORw0KGgoAAAANSUhEUgAABUcAAAKhCAYAAABzZR/rAAAAAXNSR0IArs4c6QAAAARnQU1BAACxjwv8YQUAAAAJcEhZcwAAFiUAABYlAUlSJPAAAKt+SURBVHhe7N0/i+NOGOD5x/dCLrI7mOlkWS6R4cIDuzcYWJhouc7k6LDhmOwHx8Fkw4LMRXbWy0a9LExwLcGFB3ayLJt4Gm6kaN/BvoH1VUklWbIkW7ItW7a+H1C3LZdK/x5LqrJU1ftv/+2/beVM/+W//Bf5F//iX5h3yPp/5f/8n/53+b/Nu8S/+rfyn/6P/9m8ATFU7r/+u38j//r/+v/MuxRi6Cji6gT/7/8p/9P/njtihf7Vv/1PQshVQ+w1Izwe/j//i/zHf/+/yv9oxqEZxPCl/Ff5d//mX0v+NP6v5N/+p/9DOKSehvgsF103DkriKyqX+P/bf5R//79yFN1HXF3If/138m/+9f8j/8t//PdCmJ2HmDwmfY7lvFoHsaWE5V5J4uYilaP/+T//Z/mX//JfmndAfcQQmkBc4VaIPdw7YhhtRnyiCcQV2oaYRFOIrbz/wfw/y3Z7dv0qOo4YQhOIK9wKsYd7RwyjzYhPNIG4QtsQk2gKsZV3kcrR//7f/7t5BZyGGEITiCvcCrGHe0cMo82ITzSBuELbEJNoCrGVR+UoWoEYQhOIK9wKsYd7RwyjzYhPNIG4QtsQk2gKsZXHY/VoBWIITSCucCvEHu4dMYw2Iz7RBOIKbUNMoinEVh53jqIViCE0gbjCrRB7uHfEMNqM+EQTiCu0DTGJphBbeb3/8B/+A1XGAAAAAAAAADqnt73A/bR//vyRr1+/mndAfcQQmkBc4VaIPdw7YhhtRnyiCcQV2oaYRFOIrbyLPFYPAAAAAAAAAPeGylEAAAAAAAAAnUTlKAAAAAAAAIBOonIUAAAAAAAAQCdROQoAAAAAAACgk6gcBQAAAAAAANBJVI4CAAAAAAAA6KQrVI4GMh/2pNdLDxPxzKfF8tMM54H5bMebZNPUGYryqyeQwJvIMLOcQ/VerVtwbt4AAAAAAAAAmnajO0eXMp4crh5ttcCTyXAgg/FS1mszLrRW79W6DQYyvOf1AwAAAAAAADrgdo/VL3/K2Tdv3oQnk8FYlplK0bz1cnyBu1MBAAAAAAAANOWGbY6uZfY6l3urPgzmP2VpXh+znr3eaQUwAAAAAAAA8Phu2yHTeia/Lvn0ue3KdrutNKymfTNRHYF8vO/dMqrm6Zs8fdc2I2Nref+gdhQAAAAAAABoo9tWjirL8bHOmVok+JBs3agt7mIkcTVrf/RDHMu8MdafvnkFAAAAAAAAoE1uXjmqO2f6eTfPnr/IP44jtm2JpStB7W8yij4w+vL0bF4CAAAAAAAAaLUWVI7eUduc/b6MplNZLFayWm1lu8hWjerH7v9uzEvD/rafBgAAAAAAAEAb3KRy1LJtyT59vpbZRRsfvYEgkPlkILP0Y/eWIz+oGwUAAAAAAABa6TZ3jn75IW/7jXMuxzI5t35U5dHr9Y4Ml27j1JOJzncwkFm6G3vLEX81TdojBQAAAAAAANAuN3usvj99y3VetPw5l4fo291yxH2jYhQAAAAAAABosxu2OdqX6T+2eW2sZ/J6N50zGcFf2WtmNFyP8aAnw8mDVPYCAAAAAAAAD+i2HTKNFuLm6kdv0DmTNyl4/D41HHrev/8ib9utbPXgu5m7YdfLmQzObisAAAAAAAAAQBNuWzmqjH44BZ0zfZjXNdluVEl5cFjIZftI6u8en++PZLpyJVPfe4m2VAEAAAAAAABc3M0rR6U/LeicaZbt9f2ujOTb3t2wm788XA8AAAAAAAC0ze0rR5X+9J/s3ZatFIg3n8hkMpThUA3HHrdPWX/65hUAAAAAAACAtmhF5ai+23Kx3/joNY0WBY/fp4aFfhC/L/K5lOVyLeu1GvR0y9+Srx715PfSvDSsLwPzCgAAAAAAAEBbtKRyVCnonKltRvvPy8tSxsO5ePFT84Enk+FYjc16fkpaJQUAAAAAAADQEu2pHFXynTO1zOhHpjf60Hom44Hp1X4wluV+W6mWIz8u2wMUAAAAAAAAgAtoVeVoYedMrdKX6VudClxLnLfprjd7AAAAAAAAAK3RrspRpfWdM/WnsvIrVJBatrj+SqbUjAIAAAAAAACt1LrKUbl150xV6ArSrS+uY4u1V0tqWbY4ri/b1UJGVIwCAAAAAAAArXWFytG+TFfZ3t9Xx26nLOg9vmia0SKbJupV/lr6MpouZLW/bquFTKkVBQAAAAAAAFqvhXeOAgAAAAAAAEDzqBwFAAAAAAAA0ElUjgIAAAAAAADoJCpHAQAAAAAAAHQSlaMAAAAAAAAAOonKUQAAAAAAAACdROUoAAAAAAAAgE7qbTabrXkNAAAAAAAAAJ3R2yrm9cn+/PkjX79+Ne+A+oghNIG4wq0Qe7h3xDDajPhEE4grtA0xiaYQW3k8Vg8AAAAAAACgk6gcBQAAAAAAANBJVI4CAAAAAAAA6CQqRwEAAAAAAAB0UvOVo8FcJnPPvIl4k570enqYSPYTNCuQ+ZBtDwAAAACVPVqZtmB97tVuPwxlHpiRjfNkEs5TDcO5KmUDuHeNVo4G86H0BjNZfpoRAAAAAADciUcr01JGB4C85ipHg7m8ztbmDdqhL9PVVrZbPSxkZMYCAAAAAPY8WpmWMvqFjGQRlqnVsJqqUjaAe0ebowAAAAAAAAA6qZHK0bDdj8FMkt+kluOoPY5JUbsmgcwnQ9NOSE+Gk/Pa7Mi2OZLNuzeciFeUeeBl06lpdRssxctRtLzlbY4E3lwmSTufZhq1HLv2UFLtgO5Nu1uXnmQ2XTCX4d744/PRaHMUAAAAAI65ZZlWC+YTVZ6Ly256GIb5FpVnq5QFj61Pthwdjoqkyp77616tDJovo3t63eJphmpcYSH9HKnyeW59qpX9s8us8kuVo8P38fS1y/8AWml7AZvNxryKuLZsdda5wXYPf54M9jZKWd/xvK2t45vEmu9srcJ0arCcbTqpyn1rW0XprF0e6WlcO582GXbL4TtWbpwau3VS87JSC71Lb7ZTxflk8zx9GzdhP4aASyCucCvEHu4dMYw2Iz7RhP24am+Zdi/fimXB6utzoLxs0oYql0Gz87aKytP786whv9zZcnR6keuU/Uu3V5jO3dqZ90aNbVIFxzo0hdjKa+TO0dFiK+rAI+rAE7HdqD2ORUErl5Yjrq/b6/BFHYCMpfy8yE8rtsl7K746QkbWMnuNf90JZP4a/3qWShsvyHomr6nlCOY/ZRn/1KbWSR3b1Hq64qgckl/gEirvn8vopVrHMO3ecrx/RHn3X76bbbUbJ8GHvKcyXb9/JMv8EX9gfZFBjfkAAAAAAI67XZnWk9+meFdcvkvnW70sWGt9jjq9DLpex+Xu9La6XJnVmwwkblbVcnzZrV69sn9WKv3bS0kbo5TLgXt28zZH7X+mMgqPLn11wHbVYSeyqww8ne0uTN4q9+mb7I5L7xIel1IVkJbzY5d29CNJW1gpqQ+O6igbLfZIpv8kR/WUVOdHqUaadxWhKu9PP3rRf5Hv8fzicf6nOXAb60+JPvHlM17m7/rAXGM+AAAAAICLumiZNvgrG/MyLLeaR87701VU5lPDapqU+m5UFjx9vnZSRlfb6seusvYSy/n5ayjjuH7SdlPbSalV9s/KpO+n8sygXA7csxtXjtryLfND1UC+7I4cpjLwVJZ8GZiXob68xDWQspbwuJSqgFzPBql2QXa/Nu2WY1cpGd2xmTL6lpwAiwVh2yO6bZNhup2XRF+ens3L5e+wLVAv/rnQts3BdCm/ow/UK82S7y/7B+Zj8wEAAAAAXM6Fy7SpG2d0uXU2NuXU4aF+MbRblQXbUgZdyzJ5zFPkObtTapb9s56fyipEy1AuB+5Ny3qrT1USnu1Zah/DLi2IG2MeyGA8k5k6WJcdGEff4upVXQkayF/zc6H97Udyctz8VQfZ+APruyR1ozXmAwAAAABoyrll2r5M3xyxkwpSY72W5WwsA92BULpfpFuVBU+a7/4NTM1Z/jy/U6xIjWWmXA7crRtXjm7kb+aItasUPN9+3ofp9kjixxSyw0JOaYVFtxUzGcxMG6WWWLYjruuLn27nJS119+nm9y9zl6o+EO/ueF2//5Jf8bMAz0/qtKnVnA8AAAAA4EIaKNP2p7LQj2jr/i0cW6xMwW6dqvi7VVmwrWVQW20vswTrmfzKdq6fuHzZX6NcDtyzG1eOmsfbEwceXa9tP+9sm6HhXfaDL8mB6nj7Hwcej0gedU9JjbOcN1ktpjIa9aW/35ZoYiTxzaPr5TKa1twd2o9/elyr8WZiO35MoPZ8AAAAAACX0WCZVvdvMV3IKmzL0t3dTRqXR69RFizKq5VlUEscf6G2166vkeV4Ikn9aK2y/wkolwN37eaP1YcHrPBnr0C8yXh3QAk7GzrPcjyUuMO5wPu1a0vE/hb9IpRuz2U5lolp7DrwJpK0QZI8s5Bus3QpYzU+WmxPJnGrzyX0wTdOm/RgV2D3aL0R3x2aa9N0v12bSNX5AAAAAAAu46Jl2r2yaFRCVYK/uh42UlDpem5ZcLC7E0hmvy5f1r2efqrD5FTP/rXK/uehXA7cn+YqR/tPkjS1og4+xQcbSyxrKeOBPhgNkp7ldOXfP+me5U6mDuxh3j0ZJJlb4vyIaxaj9lx2x8ioYeZd2qhX+lh/+s+uklKt00Cv00Cd/Cy1HmZ0Il2hmUqbVNAW2asEtZLGTVJ3rWpx5a52ynwAAAAAAIfdokw7Woib1O2Z8l1Yxpslla66d/zcTTRVyoIH1ifdq3o6r2R10tpeBk33QD/7Ze4erVf2r41yOXDXGrxzdCQLVx18UpV66fq9yLP8s/LFSbU2rdvm8M9q6yOmb6v31YkllbelDnj+SjLnqP5UVrotl70Wr4uXQ63Tdn95XfFX/+xOMklboCqtyjeTbTj/bepkF/VMv5OuBE33Rp++a1V9kmkR+pT5AAAAAAAOu02ZdrTYiq8Kc+n5alF5diu7Ory6ZcED6xOWi9MdQel2M1VZt7DNzLaXQcvuHq1T9q+Lcjlwz3pb3fLwmf78+SNfv341727Lm/TMr3W6cnSvIrQxnkx65lc1dQLZnvOLU0e1KYbwOIgr3Aqxh3tHDKPNiE80gbhCdanyv+WIvzJ38l4YMYmmEFt5N29z9J7oitfw0QM9pNp/CeY/k8cNsnd1AgAAAACAhxH8lY15uXtyFMA9a3flaLpx5KPDrvOlpmQ6TIrbEVHDIGlI5FJtpQIAAAAA7l7LyrStdgfbKrxhajBL9Y3FzVHAI+DO0TpGC/Fd3Q7Lfqsrpj2Wi7SVCgAAAAAA2iWQv8ktoxLWAbxxcxTwEB6uzVHcJ2IITSCucCvEHu4dMYw2Iz7RBOIKbUNMoinEVt7ZlaP6lnYAAAA8lgv8fg40gkIdLo0yLYCu4Tovq7fZbM7aIs/Pz+YVAAAAHoW6RjSvAOCxUaYF0DVc52Vd7M5RKp1xqviHWmIIl0Rc4VaIPdy7XQwTxGgn7hzFpVGmRdtwPYmmcJ1XjA6ZAAAAAAAAAHQSlaMAAAAAAAAAOonKUQAAAAAAAACdROUoAAAAAAAAgE5qrHJ0PowaetWDZ8YdMjFpe2q6wIzD5dTdH/eoC+sI4H493HlRLdRkbl6fwJvstsf8iivI9QYAoCrO3VmcuzvgzBi5FWIT5+LOUQAAUEugLpp7A5HlpxkBAABajXM3jiFG0GWNVY5OVyLbbTSMzDjcThf2BzEHoM0e5hgViLzOzOs7tDD7YKv2R9+MAwCgCOfuduDcfQV3HiO3Qmw+Du4cBQAAAAAAANBJN2lzdJ5qD2Ko0nkXaJxhv42J9Dx0+w+F89hPpwbdvkbZ4mSWW73W6cramAjUSk9S2yCcRr1Pt3+RbKO9adPrMklvPJVouDe+yny0e2yPc3+femrfxOuvt9l8b0WK1vGkuMBDqxtXWtXvWXw8GOrjiJpGp4nTx233hOPNuHD8GfPDfbn2eVHTj0el4zDMX82rKP8qcRd+fwYia/NeliatGn8pyXlVDZmYV6+rnLP3v+PpdQrfm9ennLcBAN3Cubsazt3Xde0Y2d8/CfU6KdeYtLGq+2Y/7yplszqITVS2PZPOIsomOzhWNF4Pbmq8bcaVDmo6P5W+6uDaBXntDY6fmka9tgrShEPBMtip9UmnS/JIT+Om0hQM8XL4Tn6cHtLbzlJp4vHp9OE2rTif/TzT+6MNQ7xc++PT+9Qq2v5qOLaOteOC4WGGeP/uj68bV3W+Z8eOb2Xzs9U8TpkfQzuHeF/tj2/beTFzLqgYd6V5qvFJXhWHdF5x/ultlPleqM+rnrNLl9GkS7Z3ejq+d5khXm+grTabjXkFXMbuuJcdOHdnB87d1xvi9dgff4sYKdrv4ZDexyZtONTYN+m8K5XNSoaiZSQ2i4d4OZB11cfq9S8cS/NafXlEBY/aIyIqaC/O9aO8fceMUGavu9r8uXod/zKSpHXNCPXBq1rWWLjcceJ4udU0Ouvk15WU+U/zQq1XvI7p5Xj/iP73X8IkoXicXsD3VKbr990yf6jXITXRQP2rOp9HsFbbJN5P6gCVqLuOx+IC3VIlrk79nlkqjU6fHFcUPb+i8cvf5oXSpe81zPnFvL70efF3nHFJLP1Mneeqxt1ooT5T35lk8dQy67RbNf5c+pf5mTn/6e/JItW4W51z9r4k/Vt5W1B87wAAVXHu3uHcfX33ECOn7ptLlfk1YhO1mUrSk+ksomyyQ7qWPv71omhcOKRr7vdq6qsO6Rr9zK8CakjPN6ylT81PfVGK06aWo3S5078IHFvu9DqmflVJ8o7HFfzKEM9TH6P0+/1lzgzH5qOGzDq0YIiXa3986T6tsY614iL1GcP9D/G+3R9fN64Kh5K08XdUD+nv2dHxJx4/GNo5xPt6f3zRMar02Jze58fio2hIT68GZ+/4V2koi7sLxWPmu5h6be3nmZpflXN2Ot+i8yXfu+NDvP2AtuLOUVza7riXHTh3ZwfO3dcb4u2RGX+jGEnvn0y5uc72LkmbialTy2ZqIDarD/H6IOuqd45+xtXzKir0nY+JvsizeXkJXzKZi7x8Ny+UT1/9UUO8KOtZth2I+NcFnUAn1UqXexT+qHKQbmtCt2UxTLfhkfIUr/hSwnZsvPgOMpWxml3od/jB7hfK7y/mRcqx+aBCXABHVP6e7R8rYmXjS/C9fnyNnRfV9N/jk4gyG5vz3LC4PaW0W8TdMrkFR633N/MiVvOcnfb8ZF7UwPcOAHAI5+4I5+4buLMY0YhNrivvxUP2Vv+kDho3pY5KceO7A3XAmqkvZ9kXYZT6supK0L+b6LWtxscHvs1flaUaQmrcS7x+NeZz7/YrNk9x87hA61SKq2t/zzr0vUazpm/qXJK6gA6pYFqqC8GBiq/9Dv/aEnfLn+HiXETlcwffOwBAC3Du5tx9zF3EyInzvUSZfx+xiaoesnL0b43otxx9P3HxkGqWopaJ+tLEbZRatojrivh+WK+Zl7r7dPN790uk/uLFdzbqdkd/xe2NPoc/GIVqzQe14gKIXft7xvcaF6NOFouVOp+p+HHUuc7aC6L0xWIb4k4vY0gtx6/0hX1KE+dsje8dAKAVOHdX1tlz9x3ECLHZ0di8c1etHP0SR4MKFBUbO+rba26YvIj9R6STjoyUbzrKVbAmi/JpXhxQutzqS7Y0LxOpcfrLtlqoL5aaZ19NaL4fOd/UF0ZbqwnDadX89N2h/fi2bTVh/OXSd5SGTphP1x2NC2Dftb9nfK875yrnRXU+mU5VPOkLaXWxl9xtEM+zBXHnqHnpZXTMsi3H4WJFap6za+N7BwCogXN3hHP3jbUhRoryIjaJzTt11crRdBuP44n5RUP9SfcWdgk6+Odh5ip7FZxJ2xG2Ckz9Xx1IkrY6VOTGt57rtPrW53BQyxcrW+6Jms8h+suWrOPPcFSh9KP1ofjuULWwpt40UVSJV3U+XXc0LoADrv0943vdDY2dF/fOZ2G+mn4RZ6zOg+r6MOPWcTf9x7xQkt5Wa56zz8H3DgBwDOfuLM7dV3SjGBl8MS+U2a9dXpeqD2kKsYlaTMdMJ9NZRNlkh6SnLzWke/FLjy8cjvXyVTKkexErG0p7VisYMj0PqsEuSKOXNckjtdyFadNDQe9k6WmsVC9ome21N12d+ZTtjzYM8XLtj6/bK17ROtaOC4aHGeL9uz++blzV+Z4laVPHg7rj68yPoZ1DvK/2x7ftvJjuEbRu3OXSnxCXZd/Fwu2U/n4WDOntWfodNwPfu+NDvN5AW9FbPS5td9zLDpy7swPn7usN8Xrsj79JjBzZl+GQyqvOfEv3fXqee8tZNBCb1Yd4OZB19TZHpysRR0VLTLeR4fr5OyTPoYJWVBAn4nlMw9sxDfV6pcall0XTbUKooM7dSbhQ4zLLrdOpdUl6JEy1BbrQ66PmmTDzT5Zpmbqt20gez1DSvdGnf5m0Ur/YaKfMp8sqxQWw59rfM77X3dPUeXG0UOcpN8ovLc5/kTrR1Y27xV6+e7M4S9mv/HXO2XXxvQMA1MG5O4tz9/XcJEbMvkznFe5HNS6dfaxN+4bYRFU9XUNqXp+kp+87Vs7L5XzeRGSsgkzTlWDXqvCaqNUPZ6sCfasOVKjPhFAjMXSruMDtNRlXwCHEXrsl5211oap/5OS0kLeLYYIY7fTnzx/5+vWreQecry1lWhTr4rmb68n7cI+xyXVesYfsrf7SdAWbDqBwSLXtEczNF0HZv6sTAAC0jDqBJ51lpJ74AAAALcW5G21FbD6UdlaOeqnKyApD3MlOUzIdJi1FBma+g5kZp/wzNS8AALi0lp0Xc9q+fEr4Q+cg1V8BP2oCAJrEuftsnLvRVsTm4+HO0SpGErbrkWk3wrhUuxQAAKA5f5Of9qNz9xs/agIA0Gqcu9FWxObjeZg2R3G/TAgRQ7go4gq3Quzh3u1imCBGO9HmKC6NMi3ahutJNIXrvGIXqxwFAADA4+CiGW1F5SgujTItgK7hOi+rt9lsztoiz8/P5hUAAAAehbpGNK8A4LFRpgXQNVznZV3wsXpqnXEaYghNIK5wK8Qe7h0xjLbjzlFcGsc9tA0xiaYQW8XokAkAAAAAAABAJ1E5CgAAAAAAAKCTqBwFAAAAAAAA0ElUjgIAAAAAAADoJCpHAQAAAAAAAHTSFStHPZn0ejLxzFugtmMxFIg3n8hQpdE9sPV6Q5nMPTW2SFNp04j5NvImeh9O1N65gmAexU0SBIHMh+r9cF4hfvD4OEYAAHBfOHfjtqqXZSh3AHVcqXJUnUSGY1mad0B9x2PImwxkPFvK2rwX9Wo5G8ug4OqlqbQ7xDyAQzhGAABwXzh3A8CjarxyNPD0nVPqJLKrWQJqqRRD3kTG+krFssX1t7LdqsF3xbbUuOU4++tuU2kNYh7l+jJdqRhaTdUrdBXHCAAA7gvnbtwfyh1AHQ1WjurbuIcyGM9kbdniOLYZD1RVPYa832ENpjhvCxnFR//+SBZvjhorsvy9q8VsKi0xD+AwjhEAANwXzt0A0AUNVo768rkWsR1X/NVCpk9mNFBZ1RgK5O9G/bO+y8v+z2L9F/muazE3f1Uqram0GjF/XwLxJkPTjmxPhsOJeJkGefTFcFE7PSXjA/2oVSq/SVG7tGV5ohs4RgAAcF84d6Ot6pZlzHtdRpnH06WmUWWZucpv18+GLs/M9/IsUla+yY8P20sN36vPkmXX/XkkC5Eav1+eutZ80FUNVo6OZLFdyWI64jZunKhqDEUXLfL8VJCuL0/P6t/6U6XSmkqrEfP35LduSzb1bNR6vZTxYCjJObMO3fHSQD9qlcpvOZbB67t5B2gcIwAAuC+cu9FOJ5dlNj/ldWams77IQAe2KcvMVH67HHV5ZqbyvHxHth9q2fW8Iro/j4FMPF3JmR4fladeTyqcRa41HzyGK3XIBABtspTl0hbH96N2ZLe+uGFDsmuZ/ap7+lcn2NdZeCFhOa74YX5b8V1HrHX2AgMAAAAAznNGWUbfzOGY6Ux7pN4vU5axd2WZXZ5LGRd1tHGq9UxmGyfpzyMsM6nRy/FAZpIeHzVhsX7/OO2uzmvNBw+DylEAHWSpa4KFTPvxPQB9GS3exAnPmL/r/ToafMi7vppQFxOr1F0F/dFUVuZkCwAAAACXcU5ZxpZ/pvF0midRNxuOvC3Sd0ifUT46SPfnMU368+iPTHN1arncVXr8j2jeJ7vWfPAoqBwF0EHP8rQ78xt9eYkakpW/J/xsaH0ZmFcpo2/q9AsAAAAAl3JGWUY/Sm9ehoK/ago1+vtLqmI0dl75qFjRsiv7y3W2a80Hj4LKUTyAgXwJj9npzpFicadK8UGwqbQAAAAAAAC4N1SO4gHEnSO9y8d+LWb8yHPSqVJTaXFfin79DOQj2qnZXxkznW5ppqOuPevPbKqQ91v0UyoAAAAAcBk1yjLH9J/UFLrIW9TmZo08K5aZznat+aBzqBzFQxh90w8vr2X2OhEvPqoHnkxMRzn2t1E0TmkqLe7J3j5VJ35v8iphx432N4n2qqkcl6X8THov1L0bjrMVnv2p/KPDZDmW4dxLLioCby7DMVWjAAAAAC6pSlmmqpFERd6ZvE52ZZnqeVYsM53tWvNBV1E5iscwWkjY9816KeNBT3o9NQzUgTI8mLuySB/Nm0qLO2KL/Zzap72BjKOdKm5qp0aV4/paYZCkm+lpdXMLKaMfUe+H69lYBmG6ngzGM5WdHY4HAAAAgMuoVpapKinLLHdlmV2eljg/DudZtcx0rmvNB91E5Sgexmjhi+tYqcooS2zHFb/gBNFUWtyPb2q/OqkzqWU74m8X2V9FRwvxnV0FZ5hm9UO+mPeJ/lRWvruXnytvP3IpAQAAAOAslcoyVRWUZXSZV5dnfH8lmc7ti1QtM53rWvNBJ/W2inl9El1jr52ZDTqMGEITiCvcCrGHe0cMo+3+/PkjX79+Ne+A83HcQ9sQk2gKsVWMO0cBAAAAAAAAdBKVowAAAAAAAAA6icpRAAAAAAAAAJ10sTZHAQAA8DhoiwptRZujuDTKtAC6huu8rN5mszlrizw/P5tXAAAAeBTqGtG8AoDHRpkWQNdwnZdFb/W4OWIITSCucCvEHu4dMYy2485RXBrHPbQNMYmmEFvFaHMUAAAAAAAAQCdROQoAAAAAAACgk6gcBQAAAAAAANBJVI4CAAAAAAAA6CQqRwEAAAAAAAB0UrOVo4Enk+Ew7A0rGoYynHgSmI+BelQ8qThSIVQiEG8+kWEq3ibzsnirl3Y+ycZxaVpi/n4F8ygeygPswlRcDdX8hnPio0s4RgAAcF84d6NFvImOwYkqGR9zrbIGZZpmsF2vrbnKUV3RMBjLcr02I7S1rJdjGQyrfJmBNH1RouLJvCviTQYyni1VlMXWspypeCuo7KqeVs93ILNlNo4L0xLzAA7hGAEAwH3h3A0AndBQ5Wgg89eZOm2I2K4v2+02GnxXHEuNXC/l55z6b1QTePqOPn1RYkYU8SYy1jWnli2uv4s3W8ebunjJ1GPWSBvMf4bztWxX/FQcR2l/yi6MiXnU1ZfpSsXIaqpe4fFxjAAA4L5w7sY9o6xx39h/19ZQ5agvn9FZRBaj1K7sj9QOdsVWL9effjQOKKVvJR/KYKwuSixbHEdHTjHvd1jbKc7bQpKQU/G2eHPUWJHl712NZ/W0gXy865pRR94Wo91BSaX98T28IpJdGBPzAA7hGAEAwH3h3A0AXdFQ5ehIFvpXtcXIvAdOEV2Q2I4r/moh0yczOieQvxv1z/ouL6nrllD/RcJ6zM1flUqrk7b415ogmMuvWXilJN+SECfm78pe21EH241SaQ+3Oasr8Qvag/EmUd6ZOwrSaUumw4PiGAEAwH3h3I02C1RxI1We0c08ZAoV+2UN816Xe+bxdKlpTJln1yeHLiPN9/KsSpW19vPXjparIrt2VY+to1Ex31BYDozTqUHlOTd9kWTLbTqpGp9Om8n31DKgGXMwb604/1rTBfPUuup06ZyQsz2TzqJWNq4dprcc34xA11WOIRM7tmveJ9ytrfPIfxBybZ2/rVKF72qkzfIdK1lWsZytWzWEifmbiPdVju9srXg/pgfLisanY6MsrR5S6aLYsLbpXRzFUjZdHH9RLPhbx1Kfq1giMh5LHCOVcYxAy9SOYeDKNpuNeQVcBudutE1ZTMblVTsua2SGdHlkv6wRvzdlHj3Enx0q85SUjXf252PK23tlo6rlKq36Oio18j28ntnvc6bsvzfE6U4rA1bLW6XKlRVrTVeQRg86XfwaWc32Vr9PN2itG3vUjylP92/bA9rN/1yrc4k6nGrrmYxf934lKkLMt0yQtB1lObt2ZH3XEWu9Dseneb/yadUJR1zd6Gyqfdr+07P6m25mIbpDOYyX5e9dY/3eb1mKJd9zty2jszhGAABwXzh34+aWslza4vhxW7imfKLKI7NfqQ40iujOxRwznXlCMinzpPvZSPJcyjjTgcch+q5F3YmypWaxkvTXo2q5akevo8onae+3eB2r56uWrawcGCVI8ZInRZM+SvTgO1FzGu8fYT3AaWXAannnnTBdan/6TrSWNAVS7nqVo/okMtDBqNt6pFFZ3J/RYiur1Wp3cFnPCnvCTxDz7RN8iG5GVp8oVtNdO7L90VRWrj6tpKj991M3T7uXVje3MFq8hQ3xJ+3Tjr6FJ6XkvZnP8/fvau9v5K85U0Xt3T7LE8EAjWMEAAD3hXM3WkHFn7+QaT8pzSTlk0ylXCFb/slU6nsSdcmx189GrTwjH5OBzNZ62bIVo7XKVQmTz66TkPzy1Mm3TjkwblJju5CBBOJ5+rH9iQxfZ6JnlzipDFgx75y609nipvZnf/pPuKy6CUEUu0rlaNimhT6JhL2D731RgDvUnx4+URDz7WZ9GZhXKebklrMcp9p0iQd94lefJe3TjuSbnti8Dz7e1UWzLd+mT+o0GP+aaC487G8qNbqOYwQAAPeFczfao+hmi768RB1oJJVyhawvkikJBX/VFGr095dU5WKsYp7aeiazsJZuLe8fJYkrlatiNdaxSr7+p1oyXRQrKIkNvojONUP/EKLyGQwGMh6P1botw5tus04sA1bKu0Cd6fb3s3r3JbeSSGu4clTfVq12no5Kywk71Ul39Adchvmi5w6oWtwBU3xwqJP2kL6Ed9HnEPOdsv6U+MGEkT4zmve6CYboBBidMMNfE82FR+EJGR3CMQIAgPvCuRs4Tt/p6YY3m6xnr1K7759UueqiTsrXk0l4h7haK9sOO4h2XV98s35p9cuA1fPOOnU6VNVg5ag+iUS19ZZu02Kvx2/gckxF5fpdcj9SxbfPPz+Z+KuT1vSyt98DXcj8ApRBzN+LwrZWwrZg8sJ9GT7CUDSoi2OTLvrFcSm/vSg24rtTB7o2fvNXvPiXROpGO4xjBAAA94VzN9qo6E7OQD6iwmy9Jrz6+i5HXTwuauuyRp7Wd3npj2QRPqJe3PZp5XJVqPo6VsrX3B2af3xfMXeVJky50Ha3slosZDEdyWjUl6QVg7S6ZcA6eaedOh0qa6xy1AvbmzA7j2cO0LDwFxt9EH6diBcfRANPJqbR5fTdetXTmtvk1zN5nXi7k4VKGzU0rQ/EP5KDODF/B/pT+Ufv0+VYhvPdPg28edSwflr/RfRTG/qXz8k8yFwsBN4kfKShl25z1qTf/PypTuW7TpfChrrX7/JTn8h5pL7TOEYAAHBfOHejnfbKsqqk4k1ew1itX94oKfOemufoh2l+LtUZUt1yVajCOtbJ16StVA40dEXqbvaeTEwdQMaJZcBKeRc4dTpUsD2TziKXje9sVXwknxUP9tY1ydFtcUwc5dphOnVxUsi192PMDAUTVE/rbtW5ojit5Wx9k4qYb594u+eU7CvLtqPx6Rg4uF+trZMEQMR3LPNZel/vYigbXv5WXThk4wgPIY6RDI4RuCNxTAJttdlszCvgMgqPe5y7cUNxjO2LyrH21i4sz6bjcb+scaDsUbPMk1WQb5xf5fJydh7ROlpbS+ebS7v3nauz7Ee+01aS+EAdQDhkl6FeGbBq3vvb9dTpYrvx8TTIaubO0f3bkoErGC18cdU3Xh3wDCtsi8Nf5H/nqp5W9wrni2PvUiZp04/VEPP3oz+Vle9m9qllu/L244t5l1KQVrNsp7Ah/v6L7plQyfw6GDd+bUlRP1DoCI4RAADcF87daLFvqjybLc844uceTa+osMyjysqqjOSf0vlY/LSevhs1bny0ZrlKPzr/z6rCOtbJ16TNrqYtjutEZbjESBa5dJbYri9hqwF7j/zXKwPWy3vn1OlQVU/XkJrXJ9E9gWlnZoMOI4bQBOIKt0Ls4d4Rw2i7P3/+yNevX8074Hwc99A2XY5Jb9KT8dIW99TK3rp0L/CDmYjjd6L5DI53xRrurR4AAAAAAAC4Fc90tpxux1RJ+h7ZtReKbqJyFAAAAAAAAA8q7nhqKeNBL7x7MhwGY1nq9jPsf+o3H4CHQuUoAAAAAAAAHlbU74idbV/UtNu5LeinBN1ysTZHAQAA8DhoiwptRZujuDTKtAC6huu8rN5mszlrizw/P5tXAAAAeBTqGtG8AoDHRpkWQNdwnZdFb/W4OWIITSCucCvEHu4dMYy2485RXBrHPbQNMYmmEFvFaHMUAAAAAAAAQCdROQoAAAAAAACgk6gcBQAAAAAAANBJVI4CAAAAAAAA6CQqRwEAAAAAAAB0UsOVo4HMJ8OwN6xoGMpk7qmxwCk8mag4mnjmbU4g3nwiw0rxViftHm8STlO+HCl10uK2gnkUD+wsXM2xYxoAALg9yrRoD2+iY3CiriKPUXE7VGmH8/bH6sXLYaeu+5nbLLjFlr6j/dxyDVaOqkLfcCCz5dq819aynI1lQEkQtel4GsvSvCviTQYyni1VlMXK461O2gx94B4fWoqUOmkBdMzxYxoAALg1yrQAjgv0jVeDXxUqrdFWjVWOBvOfos8hlu2Kv93KVg++K7alPlz+lDnV2qgo8PQvSeMwnkp5EwnrIS1bXH8/3sbZO7PqpM0IZP46S1WoHlInLYAuqXRMAwAAN0eZFverL9OVitfVVL3qmlPX/fRt5n+mb7y6pi7v58tqqHI0kI93fRZx5G0x2u2k/kh+fNdnkrV8+tEooJy+RXwog/FM1pYtjmOb8Xne77C2U5y3hYzigFPxtnhz1Fh17fJ7V+NZJ21aMH+V2VpNd2A5YnXSAuiK6sc0AABwa5RpAaArGqocLa69DoK5/Jrp+nRbvo2icUA5Xz5VuNiOK/5qIdMnMzonkL8b9c/6Li/pgNP6LxJeu2z+qlRanbQp3kQGKnZtd3VgOYw6aXEbgX5Eatd21HByoN0olVa3M7Vrn1ann4uXmUBXepm2XtRxbqJfh2l1m1T5nAMVI8MkTZyOtqseX9VjGgAAuD3KtGizQBU7U+WZ4aS8fJJ+r8s983i61DSVyjzlKpdvKpbDwrZVw2VXy52sZ7pslR6/n0/Juh8tq+1Pp0XbObNdMts6miZqTW8pY50mfBTV5FWyvattr2Pz1oqWGSfZnklncSwb37GSdGI5W9c3HwBKlRgKuXaYznbN+4S7tXUe+Q9Crq3zt1Wq8F2NtLG9aUqXQ6uTFk0qjSvf2Vrms8xgWdH49M4qSxsO6Tjxt45VlCYaLGd30MscD/eGdDrcr3h/HsXxAS1VOYaBG9lsNuYVcBlVjnuUaXFNZTEZl1ft8P/+YG13xQlTPlGxGo2K35syjx7izyqXeYpVLt/UKIeF66mWzylYT1t9+YrKXrt5laz7Xvp4KJ8u3t5FQ7ytC/IO1yPOK7+9q26v4/PW8st8TJwPshrurT7if65VTKiQ0NYzGb9Sq4374U10pym2uIvjPw3XSYtbCJK2YC1n13aU7zpirde5dmK8XyZtup2prS9u1NCUjMNfBfek0qoTXzhqnTxz5SV3GiTt3erBd9QYle79g2MjAABAC1GmRXssZbm0xfH9vfLJWma/SjvQiKgyj5owms7cFX1SmSdRtXxTrxwWUt+z2cZJ8g3TqtHL8UBmkh6v55Se1wEHy2r7PIla5HNS2yWe31reP/TcojvMo0VQ20CnSdcF5LZ31e1VZd64pKtUjo4WW1mtVtHO1AGogpze/XAP9C3w+hZ5213IserOOmlxI8GH6Kaj9ElxNd21HdUfTWVlTqo7uxNSpp0p9Wq0eJPwXLr8rVKlRRXjSb7Tf8KT3K6phpEswhPbQgZqjOfpx1cmMlQXCnpWAAAAaCfKtGgPSxx/IdN+Uuo4UD7ZZ8s/013J5rQyT1rF8k2tclhM9xMyTfoJ6Y9MM3i6zLVKj/8RLedRx8pqJdbv8qqbGFDrFqiE/dEiPA6sMtuxzP72rlkePGveqOMqlaNp/WnVLy1wY8FcXmdrdZ7wJf3jT6E6aXFz1peBeZUy+hadHGPBX4map31JXSTE+vISNVArf9NnUuuLOsmlDeTL/olaxYpuN2YwGMh4PJbZchn+oAgAAID7QJkWt/UsT7kCSkn5ZN9+eeWUMs++GuWbSuWwRNF6KrkyV0VVymoZI/kRftHXsl7OwnUbDMraBy1RtKyVttcF5o1arl45qr9gT8/mJXAR5qBW+ItP3AFTfFCqnjb4eA9v71/PBkkDyOEQtbYsy3F0cNJtONdJiy7zZDKIH1uxw455XNcX33dLLggAAADQPpRpgchjl2/601W4Lk7YxEBsLcvZWAYndYJUfXtdft44pKHKUbXDdcVQ4Q4zt20DF2MuTtbvkmt6I759//nJ/BJWJy0eVWG7Mt7v7KMM/SeJQqWo7ZpAPqJgKf41s4yZh+1uZbVYyGI6ktGoL8kTMQAAAGgJyrRoq6I7OU8sn5xb5qlZvqlUDmuZfn8k00XUpMbW98O2T6MmXgvqFI6pub0uOm8c1FDl6Ei+6Wrv9UxeJ6lbfgNP5kPdYY2I5fxQqYDLGEUBJ7PXiXhxwKl4m5hGn+1vu2irmlb/UhMehPYH0yaKPqBttyvRzX3USYsb6k/lH71LlmMZph5HCLy5DM1dvjslxzH1ypu8StSO9reTjmPL39nj4sQcFwEAANAWlGnRVntl2bPKJ5cp8xwt39Qqh7WEefy9p7dLvMD9vvQHT/LFvM060vxAytHtVXveOFdjj9WPFtFtwWsV/AO9U/UwGEdfLt3YL7VEuKTRIuohbr2UcdgWRxRvy/Bg7mbbAa2TFg9n9CPq5XCtH0cwx6bBeKb2vR2OT0vSpo9jvYGMw2CxxPlRM1ji9nT2jothdtr6U8r6SgQAAMB1UaZFO9liP6fKskn5JOpwqK6zyjw1yjd1ymGtkKrQjdr73K1fVGn8T3Lz0yBsu28tM51ucqAl4qrbq8a8cRkNtjmqe+Hy99pHsMI2FfzVlMeWcXGjhS+uY6UOrCbeCk4QddLiwagTzWqv7RbLduXtR8FvcAVpdazo9L5/yp3A6rio25PJZKdiz1XxGJ4lq//aCAAAgKZRpkU7fVPl2Wx5xhF/uzh6h2ehs8o8Nco3dcphLRHVG+xV3pr126bqDsKe7+NEB3u/r769qs4bl9Hb6md/z6Brr7Uzs0GHEUNoAnGFWyH2cO+IYbTdnz9/5OvXr+YdcD6Oe2gbYhJNIbaK3aC3egAAAAAAAAC4PSpHAQAAAAAAAHQSlaMAAAAAAAAAOulibY4CAADgcdAWFdqKNkdxaZRpAXQN13lZvc1mc9YWeX5+Nq8AAADwKNQ1onkFAI+NMi2AruE6L4ve6nFzxBCaQFzhVog93DtiGG3HnaNoAnGFtiEm0RRiK482RwEAAAAAAAB0EpWjAAAAAAAAADqJylEAAAAAAAAAnUTlKAAAAAAAAIBOonIUAAAAAAAAQCddt3LUm4Q9oE488x6oxZPJwfgJxJtPZKjS6Djr9YYymXtqbJEaaQM13+HQpIvSDtVCFOebdmx5cTt6n8b7s84+CmSupxvOK+x/oIiKoUn2eFJ+nAIAAAAANO16laPBXIbjpXkD1KUrs8ZyKIK8yUDGs6WszXtRr5azsQwKar4qp9VxO1DzXe9S6rTrpUo7nKilKnN8eXE73kTvU/NGLPkyMC+BRunjwkBmu+BTyo9TAAAAAIDmXalyNJD56yxVEQVUF3hzGfbSlVkFvImEde+WLa6/le1WDb4rtqXGLcfZOwMrp93Fre36UTqT1tFp10v5Oc/f71VpeXFDgfzd6P9q/4f7dCXTfvhBBX2ZrtQ0q6l6BdQTzH+GxwXLdsVPHU+iY89PKTicAAAAAAAadpXK0WD+KrO1JY5jmzFAFfoR5qEMxjNZW/bB+PF+h7Wd4rwtZBTXWvVHsnhz1FiR5e9d7Wj1tL58RjWjskgSKirtdOWKXpr1px+NC1VfXrSA9UW4YRTXE8jHu64ZdeRtMdpVrqvjyY/v4a8tkjmcAAAAAACuovnKUW8ig9labHcl0yczDqgkqpy0HVf81eJA/Jg7Aa3v8rJ/O1//RcJ6h81flUqrk3YkC31n12IUvjuu6vLiZsJ2jweiDkki65kMdJuPqduKA/X5MNUWab49SF0BrsbHbY6G+aXTp4chdwIipfiu4yCYy68wIG35VvVQAwAAAAC4mIYrRz2Z6OeXwzvvzCigMl05uZLFNHWXVSFzh+fzU0G6vjw9q3/rT5VKq5P2AO932J6olWmssuryoo2Cub7rdymZ5mVNe5Cv1HLiwnS86Ur0wWAmS8sR11+oIwgAAAAA4NoarRwNOz3R7fpRM4pHEncuph+Prd5YJdpgtJDt1o/ajFX7L2z3MTw+ecnde0k7tGF7kE7UfML7R+ru0ZQwv1R6NbimNQXLeavRlim6xv9ci2XpQFTWMxm/mruRAQAAAABX1VjlqL4rJrpplLth8EDC3ut1J026zVI65XkcpgmF7UIGEojneTKfTGT4OgvvEK4qPu7pDndW1IzigNFiK6vVKqxQ93VtvW7mgR7rAQAAAODqmqkcDebyOluL5fg8To+HET4GqytGw17u6/RwjrugK77Dx5wHMh6PZbbcf8T+sPCxfH33qa4Y5cCHGvrTt+hu5uVvoXoUAAAAAK6rkcrR4ONddJ3CejbIdlCib6lSlmM6K8ElDeRLpiOltLgDprhn8jppY1EnPGHFl34Ue5Xq5R4PwpNJeEewvuvTDjvVcl1ffN8NH6s/ynQ8F8YHFaOozbR3DAAAAAC4uoY7ZAKuIe5I6V0+9ms8gw951zVeSQdMddJqumI06t1c3wm939M0HoTpYMt2t7JaLMJOtUajvvSr7GzdY71pg9YnPlDKk4n+kXBY1LaoJ7/rtN8AAAAAALiYRipH+9OoHbXcYHoq0RUQ2y2PJeNyRt/CbnNk9joRL655CDyZvEZ3A9rfdnfz1UnrTaKK0bDSjIB9eMvf3q7iSsfEUHcqd0DcOZfuyImKURw0kujQM5PXSTbO5ibOLOcHbXQDAAAAwJVx5ygew2gR9RK+Xsp4YJpxGIxlGdZ2utm2b6umDeby09SMRU1BFA0T2gh8BKNv0ePzy7EM4n0bx4S2/hTfvNwJZG4q1NWEMs7EhRkK7xJEV40WUTMN67040z/A6DuP3/gBBgAAAACujspRPIzRwhfXsUQ3KRqxwrYji9qArJTW/zQVX3h8I1no9kV3AaFCQsWEq+IkrDXdyF9qOXE2FWdbX5xsoEXHHu48BgAAAICb6G318+5n0He+aGdmgw4jhtAE4gq3Quzh3hHDaLs/f/7I169fzTvgMogrtA0xiaYQW3ncOQoAAAAAAACgk6gcBQAAAAAAANBJVI4CAAAAAAAA6KSLtTkKAACAx0Gbo2gr2kpDE4grtA0xiaYQW3m9zWZz1pXv8/OzeQUAAIBHoa4RzSsAAADgcZ1956hGrTPORQyhCcQVboXYw70jhtFmxCeaQFyhbYhJNIXYyqPNUQAAAAAAAACdROUoAAAAAAAAgE6ichQAAAAAAABAJ1E5CgAAAAAAAKCTqBwFAAAAAAAA0ElUjgIAAAAAAADoJCpHAQAAAAAAAHQSlaMAAAAAAAAAOonKUQAAAAAAAACdROUoAAAAAAAAgE6ichQAAAAAAABAJ1E5CgAAAAAAAKCTqBwFAAAAAAAA0ElUjgIAAAAAAADoJCpHAQAAAAAAAHQSlaMAAAAAAAAAOonKUQAAAAAAAACdROUoAAAAAAAAgE6ichQAAAAAAABAJ1E5CgAAAAAAAKCTqBwFAAAAAAAA0ElUjgIAAAAAAADoJCpHAQAAAAAAAHRSb7PZbM1rAAAAAAAAAOiM3lYxr0/2588f+fr1q3kH1EcMoQnEFW6F2MO9I4bRZsQnmkBcoW2ISTSF2MrjsXoAAAAAAAAAnUTlKAAAAAAAAIBOonIUAAAAAAAAQCdROQoAAAAAAACgk6gcBQAAAAAAANBJVI4CAAAAAAAA6CQqRwEAAAAAAAB0EpWjAAAAAAAAADqJylEAAAAAAAAAnUTlKAAAAAAAAIBOonIUAAAAAAAAQCdROQoAAAAAAACgk6gcBQAAAAAAANBJVI4CAAAAAAAA6CQqRwEAAAAAAAB0EpWjAAAAAAAAADqJylEAAAAAAAAAnUTlKAAAAAAAAIBOonIUAAAAAAAAQCdROQoAAAAAAACgk6gcBQAAAAAAANBJVI4CAAAAAAAA6CQqRwEAAAAAAAB0Um+z2WzNawAAAAAAAADojN5WMa9P9ufPH/n69at5B9RHDKEJxBVuhdjDvSOG0WbEJ5pAXKFtiEk0hdjK47F6AAAAAAAAAJ1E5SgAAAAAAACATqJyFAAAAAAAAEAnUTkKAAAAAAAAoJOoHAUAAAAAAADQSVSOAgAAAAAAAOgkKkcBAAAAAAAAdBKVowAAAAAAAAA6icpRAAAAAAAAAJ1E5SgAAAAAAACATqJyFAAAAAAAAEAnUTkKAAAAAAAAoJOoHAUAAAAAAADQSVSOAgAAAAAAAOgkKkcBAAAAAAAAdBKVowAAAAAAAAA6icpRAAAAAAAAAJ1E5SgAAAAAAACATqJyFAAAAAAAAEAnUTkKAAAAAAAAoJOoHAUAAAAAAADQSVSOAgAAAAAAAOgkKkcBAAAAAAAAdFJvs9lszWsAAAAAAAAA6IzeVjGvT/bnzx/5+vWreQfURwyhCcQVboXYw70jhtFmxCeaQFyhbYhJNIXYyuOxegAAAAAAAACdROUoAAAAAAAAgE6ichQAAAAAAABAJ1E5CgAAAAAAAKCTmq8cDeYymXvmTcSb9KTX08NEsp+gGk8m4fZTw3AugRkLAAAAAAAAoLpGK0eD+VB6g5ksP80IAAAAAAAAAGiJ5ipHg7m8ztbmDS5rJIvtVrZ6WE2lb8YCAAAAAAAAqI42RwEAAAAAAAB0UiOVo2GbooOZJPeNLsdR+5iTohZGA5lPhqYN0p4MJ+e1oblrz3Qo8yCbd284Ea8o88DLplPT6nZS95Pu5+3NJzJM8lbjijMvWL/yNkMDby6TofksnkYt9zyTdfH02eUzI7VgvlvOvX1QbX6nrjsAAAAAAADQXje+c3Qp495AZsvd4/fr5UwGF+moaS2zQTZvlbmMBwUVh4NxNp2adjkby6C0s6O1vL8OZDxb7iqA12p+49d8JeawYP2GP2Vj3md4ExmMZ5JZFGWtlnu2v9yXcNL8qq47AAAAAAAA0G6NVI6OFlvZ+o5Y5r3YbtQ+5mJkRqRYjri+bj/TF9c242QpPy9S02abvLfiO/HSrGX2Gld6BjJ/je9wTaWNF2Q9k9eS5Viv4/Tp5V7L+8cufTD/uat4VNvA19vAd8VR6fbqIxW1LD+X0Uu1TcK0e8udzvt8p8+vyroDAAAAAAAAbXfzNkftf6YyCnsU6sto4Upc17Z+/yi5a7M6212YvFXu0zfZ1fu9S1iPF3zIu6mltJwfu7SjH0nasuXY5a2W+8euInj96ZtXgXzEmeuK18Uo6jipP5LpP0mNYkpfpquogjLdyVL/5XtB3pdw+vyOrzsAAAAAAADQfjeuHLXlW+Zm0oF82dW0yXlVbZZ8GZiXob68fE8yl7Aez/9M7uBczwZJm5s9/ah/8sGpy+HLZ5yH9UWtWcroW1IJXCwI2wLVbZUO0223Nuba8wMAAAAAAABu7+Z3jmb15enZvDzbszzFt0Ne3H7F64UEcedIg7AtUN1WaaMVlSfNr6F1BwAAAAAAAK7sxpWjG/mbeWY9kL+FPRWdYj/vwyzHjx4xzw0LKWgptQGeTAZx50iWWLYjruuLn2679aKuPT8AAAAAAACgXW5cOWoeb08ceBS9tv28s22Aho/zD74kFYGXby/zQBMB3m8xXSHtpMZZzpusFlMZjfrSTz36f7KiPJqcHwAAAAAAAHAHbv5Y/XI8ES+8wzMQbzLeVdh9f0k6CTrVcjyUuLP5wPu1a0fU/hbdDdp/kaQZ0uVYJtGCqLSTXfujEy8cV1+6jdOljFU+0Wp6MhnnqkYzdEVtnDbpUb6Cwa42Vma/mp8fAAAAAAAAcM+aqxztP0nSfOhyXFLRaIllLWU8iNq93NXh2fLP9BINhq5lFubdk0GSuSXOj/hB+b5M33aPkS/HUadMu7RRL/On6k//2XW8pLbBQG+DwViWllpvMzqR7qQplTap0K0g3dN8Zn5mVMYF5gcAAAAAAADcswbvHB3JwnXEStUC5ioE5Vn+Wfni2LtPdNuX/kXa+bTE8X1x03lbtrj+SjL1rv2prHw3swzaZZZDbYPt/vq54q/+2VUcPz+ZO2RVWrUcmcUIl3er1sG8X/6Wg/exhuvipPLQbYmq+RW2I3qB+QEAAAAAAAB3rLfVvQ6d6c+fP/L161fz7ra8Sc/cgaorR/cqQlvDk0nP3NFpu7KtfXdqanrLEX81PbsJgltrUwzhcRBXuBViD/eOGEabEZ9oAnGFtiEm0RRiK+/mbY4+Ml1RGzYnoIe4zVElmP/cta365YRup4K/knTqn9x5CgAAAAAAAKCOdleOpjtGOjrsOl9qi9G3pFXPXbueahjseoaq3bZqWOE6mCU9yp9UuQoAAAAAAACAO0cbNVqI7+o2QPdb/DRtgdZu0zSQv8ktoyoXlcdbO9sNAAAAAAAAAFqv3ZWjo4XoJlGrDVH7oqNF9v2t9UdTWaxWqeWMlm21GJ3wOHxfpqtdPqflAQAAAAAAAEA7u0Mm/Zg4AAAAAFzLmUUYIIcOStA2xCSaQmzl9TabzVlXFs/Pz+YVAAAAADRPlWHMKwAAgPNc7M5RfrzFqeKbj4khXBJxhVsh9nDviGG02S4+CVBcFndSoW2ISTSF2MqjQyYAAAAAAAAAnUTlKAAAAAAAAIBOonIUAAAAAAAAQCdROQoAAAAAAACgk6gcvVOTXtQgfW8oEphxD0ut4GRuXnfMXO3fcD+rwTPj7kmrl5+4uvh+8Sa7fOdHDkx10mr3/l3Q6q5Dp47zN/AIMXVtxHC7EMPAFQVzdd2Y/aZ56iCnOyfu9Sbt+A4WLONJLpUPANwRKkfRaurcLL2ByPLTjAAugLgCAABAFcF8qK4bZ62+brzUMt7DugJAE6gcvVOLrchWDyuRvhn3cAKR15l5DVwKcXWXpupYFx7z1DAy4+7NI6zDI2F/1Mc2axf2B3AFwVxdN67Nm5a61DLew7oCQEOoHAUAAAAAAADQSY1Vju63J+fNRYbmvW57qqwZk0CNn6TaUNJpdbuAVduq2p/vPPVe5+UVZbSfTg1F8zx1ndJ5D9VrnW9ZO1y59dfT6Lz3FqZo+tI2/NTrZDlVmrSq8zt13U8Vzm8gkvx2uTTzSi1/08teZ79pTeznuqrkm7RRpv6nZ5feTpP0NlGJ4u0Vj29q+ZtGXJ3m3HyT5VVD2TTp7Rluv710RW3r7e+D9DKeu85NKFqHWGY/q3SF56qa9rdPeh56G59zPoxdOj6veXw6tD9QjBg+HlvEMPA4wjZFB7PUdeNYfd/UuMyXOBao48kw+lwNQ3Xg2fvK1haoA9RQHSDiPHvqwKLzTR/7qixjoC5SJ5l81PKpA176mHIsn137qsPssSiYq2OY+Wxvu1RZfgBoje2ZdBZRNtnBtaPxerCs3ev04Pjl0+QGlYefSls2HMzDDJn5qtdWQZpw2JvnKetkF6VT45J5pufhptIUDOm87Xh8avr08pWuo0qTjK8xv1PWveoQT58eV7of4+VveNlr7be66Wssu5PK142nLxsq5us7+XF6SM/LUmni8en04TI0tfwXHuL5pscRV9HQRFzpIb1N4vHpedkqr6K0ZcOxZS7NI71dbjDEy7E/vmy7J8fzsuHE9am7jeucD/XQRHx25fjU9iHeLvvjieHygRi+3hCvM3Bpm83GvIqUHoNs9/DnyWCr7+ZpDue9y/fYMqoExZ+Hg6WOKXGyos/VkFvX3TQh39kdM+N5KlWXH4ftxyRwKcRW3lUeq1+vRVxfHQnVoVAdKBPvH+aF5omMl+a1OsIm6R0zTuXxOjeva4jzURefidmr/m0vMlev41/IkrSuGXFgnlXWSXf6sowzV2nUBba6ChbRixKPTpv/NC/U+odp95Y7s70u4NT5VdqfZxotom2lFi2iS156GdV4rcllr7vf2rKfq+bbf9lt12Re6gvxnlrY9fvuO/KhXofURAP179pxeknEVX3n5KvvlIqbrrLUNIsDjeIlx98zljnJ4+1+2mIO97N5nexnNThJkF5O0TY+9XzYVHx2+fh0r4jhCDEMPJ7RYquOC07ynZb4V96iCxp1oeOqL63+lWZ3LbiUn/u3fFfiye+kXOyoY0H0y4CfHFh3+R5exkAdU0xGhfms1TGlSj51VV9+AGgNdaA6i84iyiY7qJNC8ln6biF1vkj9ulScPnMXgBrUcTT57Ngv46XzVUM6n3AeqWVRx+3itOp/eJ5TQ911Kl1uNW08Pp1/4VCStzrn5qYv3YYleRQOJWnrrnudIc4391ndvC+07HX3W5P7uTTvqsOxfONx6WU1Qzy/ONb2vyOZoanlP2OI55v7rGRZS4eS9MRVPt/MNkm9tlJpCtOeuP3SeRyMzysP8TLtjy9ah9J9kd4Ox/ZzyVC6jdWQnu8p58PS5b5kfMbj0nmaIZ7nvR6f2j7E22V/fNE2K92OxDAx3NAQrzNwaYV3UpXcGallj1FmZMhNldUcdRypKT1PfaemeySHA8tYqCx9pXWtcOdo3eVHKe7uQ1OIrbzWdMi0+3VJ5GXvlp+X7+aF8rfGj0xf9E/wKel8Pn31Rw3xD/nrWbZtp6SjPvVfJz3FZ5yHWqfMoozCmxQO0u1N6XawhmrC1M0Gjbn2/C7p0sted7+1cT8fy/fp2bxQ3zuVVLzf0Vu9wGo1Qr/DD8Ikoe8v5kXKPcfNMcRVXp18l3HgKM/fzIsS+8fqUzw/mRd3pnQ/q/Ng/DW9hEufD5uMT45P94UYziOGga6x5Zs6duwM5Ev8ZV9/1i9L9l/kezy9+vbPxgN1LOtJbziUydxL7jyvJ1DHlLk6pgzVMSXVtmgTGll+AGjWVSpHL1HwjYUXwBU9Nfhc5SXXKaHOFHED/IOxuphXV8yNnrhOnF8j615XB5f9qBr5jlKVVbqA9ncTvbbV+PhiZvNXZamGkBqX/Ghx7Ti9JuIq7wL5Ln+G2TSqFfugxZo8H1ZSI444PqEIMQzgfvR3P5KcpC/TN0dsc7xIrNeynI1l0BtmO3Y7JIg7YxqoY8pMHVPWVzimXHD5AeBKWnPnaFV1CsB17jK1HJHttnjI/BDYoIlat7j9K8sWcV0R3w+vmRtx7fldEsueVyvf1J0xm9+7O2j09yu+G0e3ifYrbgtNXeDF5bZ73vbHEFd55+TrxO3kqel/cRF8U7c+H3J8wrmIYQDttdk7RgXJjyIn609lsdrK1nfV9ZQtVuYgsJblzyq94XvqmDIzxxRLHVMcdUzx1TEl1bZoUy6y/ABwPa2pHN09eiBi2oVOJI3VK3XuHNi/yzSdT/jog7oATWb7aV5cUHqdMoviqQtf8zKRGqcv6lcLdW2tlrGvJjTXyKcryqPJ+TWt4WWvtd+UVuznE/L9ZkpuazVhOK1aD33nSj9+PFlNGBfQ9N0uoYa3/U01vG5diauYo9JMp7tOWZbjMDvsKd3P6jx4brkq7dLnw6bjk+PT/SCGixHDQJes945Rfqrpji/Zpjvq6o/U9dRCVrqicevu7sas8ri+9zt1THlTx5SpOqb01THl83LHlGN5nbP8AHBFrakcnf5jXii651HPVJB6c/XeHHH1haK+/q1KF8bjjvB0u01Jm1PqgjXMR12kJu2hqDNHfHu/TqsfZwqHSTTuFOn2sMYqn3BR1J+JWq5D9EV9nDbptbSCwRfzQpn9an5+bdDEstfdb9fez8dUzTf92F8ovnNFfTlMmS6RbUcpcs9xcwxxlXdqvulj+89UT9GIlO3ndK/bl3Dp82HT8cnx6X4Qw8WIYaBblupAEpVfA/HUgSSplPz+En336/Am6pilH4VXgzqYhdlqui2O+NhXs9J1/embY4qnjinx0lU3SP2iNPtllknlNRkX5NXA8gNA40zHTCfTWUTZZId0731Ve05PT5MbjvUYaoaDeZihdHkKhnTvn6esk7oATqZJBrUuSfrUehWmTQ+pvJO06e1yZF3CoSiPsiGV9pR1rzrE+RZ9lltGM4+ml70w/5L9Vjd9nWWv0xNtnXyLprFSPeWm51tp26SHE5f/0kM836LPcutglrnOuhFXZqiwTYrmV3f71crjxkO8TPvjy7Z7enzhoD5Px0XVIb19yobSbV8w7MdKU/FZlP+jHZ/aPsTbZX88MXxgIIavNsTrDFxace/NqZ7n48H0yr47RllbK/29TgZbTX2aY8e/bGfyZctYMH5/yGRUvq7ZHuhLhlRe9ZYfZehRHE0htvJa1eboaCHiu+o0oo68CfXaVuO2K/OLew3qglnUgTmh2zpx1bhpOiP1eqXGOal0mm7nSV0QR3cjnGGh8kjnHear1uXZvE+3M7VQy7G/7np5k3VYin7iqpxZl3Qe4fzUuHS2sbPndwULte/TbdTEL5te9jr7Tbvqfi5xSr7Jj8BKuqfc9B01VuqOZO0e4uYY4qq6S+TL3aOHTdU+zexns41To87WxPmw6fjs6vHpHhHDCjEMPKiRum50Cq8bd57lH3XwcVJfXt2+p79dnFyWHKkDlK+++On5apY6ULnqgLbIZFy2jGq8KlxnjynR9Ltjyu/UMeXAuvan6via7mRJt2HqlrZfWm/5AeD2erqG1Lw+ib5dXjsvl8vxJiLx3f36Qjpz0dwiE7XZwsVUJyZ13qwtmV6dcPSFfEtXsxITQq2JoUPq7rdz9zNOR1zhVtoSe7c6HxKf948YJobbbBefd3CCx1358+ePfP361bwDbo+YRFOIrby7663+nuiLen0BFw5xe1ZKMDcX3cr+HQOVqIySTg5SdzXgMurut8b2Mx4KcYVHQnzi3hHDAAAAiFE52qBMY/zqSntgLsIHMzNO+WdqXlQUXswPMm1Z48Lq7rcm9jMeD3GFs3jR/q86xB3XNIX4RG3EMICuUgW4pIOio8Ow8eMfACCPytEmjSTfhqpR1v7VMX+TW0ajPN64cL+8uvutgf2MB0Rc4ZEQn7h3xDAAAACMh2tzFPfHhBAxhIsirnArxB7uHTGMNtvFJwGKy6INPrQNMYmmEFt5F6scBQAAAIBroHIUl0SZFkDXcB7N6m02m7O2yPPzs3kFAAAAAM1TZRjzCjgfZVoAXcN5NOuCj9VT64zTEENoAnGFWyH2cO+IYbQZ8Ykm7OIq/AfcnAlJYhIXt4stgiuNDpkAAAAAAAAAdBKVowAAAAAAAAA6icpRAAAAAAAAAJ1E5SgAAAAAAACATqJyFAAAAACAPfNh1HmJHjwz7pCJSdtT0wVmXOPUjCZz8/ocl8oH9+1O48Cb7L6r86t9+W70nUcjrlg56qnA6cmkylkFSATizScyVLGje5HsqaPOZO5VOPBUiDd1BO31JqkLnSvOK1DTDIdmPtG8hiqD4nnVWK6m8n04ddY9kPkku00PbifiqsNxVVeFfQy0Ta3jAQCgScFcpDcQWX6aESe6VD64b8QBOm17Jp3F8WzcrW1F6WzXjAKMQzHk2tFnueFgIFWLtzDvVIKrzct3ttb+POLBslWOWZWXq6l871S8PkWqr/tu/x5PG8nsa+W07Uxc3bN4nQ/jvIj2Ko3hmscDoAlxzAGXtIur8wbb5CPqHO8XfH7RwZfdMVldfxWmqTJcKh+Giw6XisnKw53HQboM4qh1KUrDEA272EJa43eOBt5chr2xLNdmBFCVN5HxUv23bHHjqwvfFVsdtWU5Lrzbqnq8BfJ3o7L+MojeXm1egcxfZ6Insd3UUVvNy9HzWi/lZ/o5gMrL1VS+D6jGugfzn+H+tWxX/NQ2jdL+LHhkg7jqbFzVwHkR96nm8QAAAAC4F+rC9iw6i+Js/K1jWdHnlr11HDt8zR0y2FcWQ9GvP9bW8c2IWHznSiaYasZbmMcu7+vNy41+US5MnP+s+nI1le/9CvePGvZVX3e9n9V7y1Gvsnwn2v+5zZTZ13W3M3H1KMpir/Y+Bm6kOIbrHQ+AphTHJ3CeXVxlh/Ba0Hzm7n8WXvdEg6XS6d+NwmOhHs64c9R3ovzivMP81bzSv0tF11wFgxqf5OOq5dnPR71P31V3LJ/055m78dTr8NoulTYeqiw/w/Eh3nZFn9XZxjeLgwrz1cN+3q5et3ganV7lk05fNpQtY/Kd3Buvlz39HdaDrea9/73dzze9TuF783r/O191/W8xxMuDrAbvHPXlcy1iq2j2VwuZPpnRQCXRXXFifZeXfjQm0X+R7+qIKZu/KlWsXrwFH++yTvK+5rxGstBHpMUo/OywOsvVVL6Pps6692W6Utt0NVWvdoJgLr9m4b1T8m1vcxNX6l/l9e0izou4Z3WOBwDw2HQnLDP9tIyxVuf3sW6r0bw/lTcRGcyi/NLWKmOdf+WHcFTCwVgtz34+6v1M5dPUjf4XW36UqrWNbxQHp873/VWtg143816/mKl8Tl1O3aFa/J20XZFpXEZR+Q3VcqS/w9pSzXtwoGMlvezJOqmyTa7ME7vVdsdZGqwc1RfRK1lMR5mKBaCaqBJBnp8K4qcvT8/q3/pTpYrVizdfZ57kfc15HeD9Dg/eySPZtZerRFP53qXT1z1QZ1fd+chAXY0sLUdcf6EiIYu4Uv/OzfehcV7Eg8odDwDgcelOa/QxL2SrK6CtvgVLoiZGzvQ7zljlFefrO2ac8tP0Ij5aqM/URVUyS337mk6vxmvzn9H/snzeP6L/x/Kpq+ry43R1tvGt4qDqfPfpykNXLYdO76pliJWlP0RXIof3syiq6Cbp33bnr2pe5nU8P981I9QHrwfiNEn/pks4xU5df9zWFXurB9rCC08q9v5tf42oOC91lTXUjTWqI/db8pPWBTSVbwfpykjLMpcM65mM1Vkz+6MfcQWggzgeAOiYj3fzQnEXuwqS6Zs6FJrXJ1EXlvohnNBazcfcAtifRpUrelip11VMV2Ya9T9evv7LbvnWTfRGfsHlR4ma2/gmcaCcOl99d+fITDD6cfpyfv6SqB8ExbL34k5tw3dTM6ouXZL59VWxKv6BY62+49lyXiSTPl6xArfa7jgPlaPonuCvOqlYcpUbXKrMSxcsB7qTC0uct+wj3GdpKt+OGi22slqt1IluK74+c65nMsj03kRcAegYjgcAOih8UkZTl4OZSzF1ENQPypxMTR82Q2Tox4l7PTUMRSZzdcg14+sK1OXqfBI9RhwveiMaWn6knLGNrxYHe24x36WpGNWev5kXMX+3HKo4F20/M8R3muoEKlnO8wlNYt1qu6M+KkfROdm2Gpt1bF7ho9q6YBn27r3atYNypqbyRaQ/fYt+WVz+1k3KhIgrAF3C8QAALk/ffWqnKr9Ca3XJqdtC7Imkf5c/KFBph1GFj277cLa8TsXMxZYfpWpt4xvFwanzbeImk+XPcHEuovLy3Wq74yxUjqKlBvJFH/QLO3CJO375kv21tpJAPt7XYn1/Sd3hcs15xQKZD3sy0D9PWU7YOUt8i/7OKcvVVL6P4lLrbtrQTBBX3Y4roEuqHA8AACdRx9OFfiTXF3EcdZjV11YpVSt6JuqCK+4MxrJFXFfEV3nuZXd5F1p+HFBjG98qDm4Wfyl624TUcvwqqZRXlzHR4+8FwzkNpbVh/VEflaNoqbgDl3f52D+DBh9ROyFVOqPJiTqNeX5KT3nNeWm6YDkIb9u3HD/XG/pO3eVqKt9HUmfdPZn0etIb7rctqkVtfu4QV92OK6Arqh4PAOBxhT8Ga+pY6JuXIXX9o38Lvgh1cJ1ORVam7cLkTsH9eRbxJOkwSlf+rBYio5HKUk2oL8cu4lhe5yw/qjm2jW8VB9eY7xHqEiXcNnEbostxuFiRgVou87KRtj9bsP44DZWjaK3RN1v9XcvsdSJeXNkSeDJ5nYUHlpM6vgl71LVlf9JrzsubRAVL293K6shziHWWq6l8H031dR9JlHQmrxNvV0Gq0s6H4/CkZzk/ol8ViatQl+MK6II6xwMAeFQv380LZTxRlzr6hfqT7gH7JF70GG44xPlq+kWcsRXW7VSmK3+S5Yt70K5h8MW8UGa/dnlNxuGorAaWH3tO3MZXjYOUc+d7ruk/5oWS9OKvLl+SdltVgS5uhkAVWTLb9hJuvf6oaXsmnUWlbFw7TKcuqIGMQzHk2tFnueFYIJXEm+9YW7GcrW/ep11lXr6zVcfi/Dwyg71NZ1VpuZrK947F61Ok+rq7W7sonR5S+5a42nn0uKoiXuejOC+ipQpj+ITjAdCEON6AS9rFVXZwrN0xzi0ZXzioz/1U+qpD6XWUGWw3mz53naqmLxy/P5h0x/LZ+nL82J/Kq+7yM5QP8TbbH19nG98qDurMN70++qGUeHxmnnvLWTSU5VP4HT6yPunveunymSFZ19R3vu52v/YQLweyuHMUrTZa+OKqI5o6eBmW2I4r/uKUO9AOtdV4pXn5n7V/Ua60XE3l+6Cqr/tIFurs6WRaPTdpk8dJiau0LscV8NBOOB4AwKOarkRdH5o3im730fVFUqNOMlqow60b5ZcW579/ObXYSxu/VJdj2U57zPRuvIDL8CbERFk++oJztZeXbkOxrP3EusuP+ups41vFQd35Nqns7lG9PunvsBau01ZtY/P+VG1af1TX0zWk5vVJevq+Y+XMbNBhxBCaQFzhVog93DtiGG1GfKIJu7gK/wE3Z0KSmGy5idpPS/3CEvFXYb1r6+1ii+BK485RAAAAAAAAoKog1Qnb831UjKIclaMAAAAAAFxSuoOXCsM87LkFwD3wJup7O0j1g5XqtAr3icpRAAAAAAAAoIK/yS2jUVulb1PzBneLNkdxc8QQmkBc4VaIPdw7YhhtRnyiCbu4Cv8BN2dCkpjExe1ii+BKu1jlKAAAAABcA4U6XBJlWgBdw3k0q7fZbM7aIs/Pz+YVAAAAADRPlWHMK+B8lGkBdA3n0Sweq8fNEUNoAnGFWyH2cO+IYbQZ8YkmEFdoG2ISTSG2itEhEwAAAAAAAIBOonIUAAAAAAAAQCdROQoAAAAAAACgk6gcBQAAAAAAANBJVI4CAAAAAAAA6KRmK0cDTybDYdgbVjQMZTjxJDAfA/WoeFJxpEKoUDBPx1p2KJzGm6jPJirXWCDefCLDZLqhTOZV4vXwcoX251Xru1FjuZrK96GV7b9o/G5bFg3p+DGIK+Kqsgr7GGg1YhhA13Dcw42F1//xdfbeoK7Xw2v03IV3IPOh/nyevSbPJzxTyXyAe7A9k86iMBvf2Vrms9xg2VvXJAPiuDjM3dpWlM4uCR7XTsXY3lA0TZg+9UHp9GUzDB1fLi0zr5rfjcrL1VS+dypen8MO7T/1WbxNSoeS7ZrKjLgyw8H1fSzxOh9WbR8Dt0AMo82qxSdQD8c9tE1pTLp28ln5YG0d36QP+VtHx67lqFdmjGOra/z8tfx58vNB+8Rxgqyzt0jxhjVfCjXedlNfC99NxlvZbys6rDiGdnw3WzlTfDFS90AcpU/iMD7J6MqeOAMVr4cugKotl5aeV83vRuXlairf+xWunxrKVN9/eb5jlUxDXFXL97GF20ANZc6JPeAaiGG02bH4BE5xLK447uHaSmPSXG8XxqDvq4+jckrRTRxp0Q0Nh9PgMZXGVsedvUWKN6wqDOvxhd/YQ5+hi8q/nLpixhzcLXvrOAdOBHXjKrwbbveLWnRy2P+FTYnvmsvkW2e5lMy86n03qi9XU/ner3D/qCGv5v7bd2gbZfZ13e1MXD2KcB+qIe/M2AOuhBhGm5XHJ3C68rjiuIfbKI3JQ5WjRnRNvncTw54oDZWjXVQaWx3XUJujI1mobb5djMx74BS+fK7VIdtxxV8tZPpkRhcJ/spG/bO+DKL3RwQf77K2vstLP3wnf8OJ4/cp/Rf5bqn/m7+pdlNqLJeSnVed70ad5Woq30dUb/9lBTJ/nclabHELtjVxpf51Nq6qOCf2gDYghgF0Dcc93J/RwlWlFZH1px+NUFfgu7ZAo9fjpR6/lLFuqzTdiG7gyXyS7Wsg33+AyU+3b5r0+zERL0jPJ+JN4vfqsyRfnWecIj2+V9ivQeBNZKjzNWno0wBNuH5v9d5v9RVU5eeKlVjoMl0xs5LFdCT7dS05/qeo6xZ5Vhcw6Y5jhpO5OkhHSdJ8fZXz/GTyjS56du/T+vL0rP6tP1WqWI3lUrLzOiD33ai7XCWayvdu1dt/acH8VWZq21nOD5VLHnGl/nU2rqo4PfaAdiCGAXQNxz3co4F8OeXGhGAuw8FYZkt9UR9by3I2lkFRL2Sbn/KqC0ea9UUGB74kH5NBKl+d50AmqqA+H6bHq0+WY3lNKk71Ig1lMF7KOr1IZpnS6YBzXbdyVH/Z9E8UliNvU04vuJwgvGVNwoPkMnXkXC9nMh4MJXvc9OS3CkP7W5W74c5VcV5NfTf4zl2QJ7+imtGSbUlcAQAAALi1Qzcm9GW62oqrby3VT8OlnhLzfukn5PQlviu+Hh8OvkprqYL2WHL1o7rc7fhRutW0/AeE9UxmG0dcP8rTdx3RdbfL8UBmkh4fLpSs3z9Mpa4pf+nlNGnCwXeiO2OTdMD5rlc5qgvTA/1ls8R5O/DFAU4Q3kWnFB7IVdTNfqUfFdCP4FtylZuXq8yrqe8G37nLiu+U/P5SvC2JKwAAAAD3SF3j/9SFHduVVeZO6b6MFm/i6PrR3/u1o7b8U+lGiajcMDJJ+yPT5Jau9Fylx/8I57Oj79zW5fqFDCQQz9OP/E9k+DoLy2XAJV2lcjRsh0IXpi1d478SbjTCpY0WUYVo2YFcHcklPpRn22ps1rF5NfXd4Dt3eZ6+VfPABQBxBQAAAOD24r4Avkjt+zaW41TbnvEwCJsWyz2mXzn/Z3kqKjdUmV7fmKGWYTAYyHisH/nff8QeuIyGK0d1GxIqkM2jqLoR6/hXAeA6zCMFiUA+3td7d/8dapPljBNL4bxiVb4bpyxXU/l2XfQYu9jfpPhBduKKuAIAAABaIPgQVVyo1j9BHVfvP8CTib4xQ72ybDvsGM11ffH9qMMp4JIarBzVhenoFwZLt0NxqA0K4CzqoKl/0Ur1irezXykTdRrznPnpKm6T5V0+9jM468RSNC+t6nej7nI1lS/iR+rL2/gkrogrAAAA4PbitkNP6QshvN5PmqnbHxYlN4o0JC6DuVtZLRZhx2ijUV/6FCjQgMYqRz3dG5n6RoaBzLOXaNRIvoUtMs/kdeJJUi8TeLtKnfguu/AAa8v+eWIUZSCz18mud3s1/eT19BNL2bzqfDfqLFdT+UJtmqiGvbyNT+IqRFwBAAAANxIE6tp9KLrfVLEc+XH00nsjf+Nr9n7UDuh69iqTebArUyuBNwkfbe8V9Vh/Bbqt02R5dNliOA4rTYFLaqZyNG7MV1mO021VpAdVeI6SAGcbLaJb69fLsQziGBuMw0odfWKIe9QOK7mKHu0dLaIe+9ZLGQ920y/DGh1XTAd+tRTOq+53o+pyNZUvQlGHXyVt5SjElUFcAQAAAI0rvDbX7XKGF97HO04dhO1hrWWmr9nDSs++TN90L/JrWc4GuzK1GgbjpRqr8jxe23pZo29hGV+tbKaMH66idvXH/PHImqkc9T/Du4SA6xnJwnfFCXunj1li2a74yWPAh9pq1PU6vriOmsa819Prdk38k2p0SuZ1wnej0nI1lS+UY+1lEldpxBUAAABwA5a57t4e7zi1P/1HkqJz3GdAfyqrXJlaZWs7N+qMNSrjZ4v4ah1dVd4Ia01Td74CZ+ptdeMRZ9C199qZ2aDDiCE0gbjCrRB7uHfEMNqM+EQTiCu0DTGJphBbxRrurR4AAAAAAAAA2onKUQAAAAAAAACdROUoAAAAAAAAgE66WJujAAAAAHANtJWGS6JMC6BrOI9m9TabzVlb5Pn52bwCAAAAgOapMox5BZyPMi2AruE8mkVv9bg5YghNIK5wK8Qe7h0xjDYjPtEE4gptQ0yiKcRWMdocBQAAAAAAANBJVI4CAAAAAAAA6CQqRwEAAAAAAAB0EpWjAAAAAAAAADqJylEAAAAAAAAAndRw5Wgg88kw7A0rGoYymXtqLFBR4MlkmI2h4aQshgLx5hMZVo03b6LSTMQzb2tPn1DLqNKrxSq3P6+m1qvJ7fVIam2nPeG+PLC/iavuxlVtFfYx0GrEMIAOOOe6Ebg0UxYpHFSchrGZC85A5kP9+Twbt/mEFZXkd9Sp0wFXsD2TzqI4G3drW9FnucF2TRrgQAz5ztZKx016sGwVYVmuXZBODyXxFqZPfVZ3+sguzg8ly8yrqfVqeHvdm3h9cmpup4zUtGWbibgqSKeHg+v7WOJ1PqzaPgZugRhGm1WLT6Ce0rg657oROEMcZzmunY3DwsHaOr5JH/K3jj5nW456ZcY4tortU2M4n181p06HS4rjBFlnb5GyDes7VjjeUlfMSeD78YX0/pcVXVYcQ+bAqcbbbipYVAzF4610EMUnCX2REo9O4q2o4Bbln+RRe3r9cfZiqbxwmJ5XU+vV9Pa6P+H6qSGr5nbK2E0bTW9GZ6T3tUJcleT72MJtoIYy1fcxcBvEMNrsWHwCpyiOq5rXQcAFFcekYq63C8+9vq8+juph5EjFZ3RDw+E05cx3g8rRu1QaWx139hYp3rDlQR9XmnIhjVhxDLlbW48vDJT8Z9HBvaDSPf61dz+fcPwufb3pdXybk45lbx3nwAlKy8yrqfVqeHvdoUvEVVp07FLb7ND+Jq5qrO/jKo49reY+Bm6EGEablccncLriuKp3HQRcUumx7lDlqBFdkx+uvI/SUDnaRaWx1XENtTnal+lqK9vVVL3aCYK5/Jqt1Stbvo2icUCxkSzU93a7qBIogfzdqH/Wd3lJB5zWf5Hvlvq/+Ztp1yT4eJd1kr7u9L58qjC2HVf81UKmT2Z0iey8mlqvZrfX46iznVK8iQzUsct2Vwf3N3Gl/nUyrqqqt4+B9iGGAXTJideNwI2NFq7Y6v/6049GqCvwXVuf0evxUo9fyli3VZpuPDzwwn5jdv0H9GQ4mYtX4SI+UGWmoZ5PMm2Vvgei9svDfhS6XVDAjV2lt/pgHjVgPRjMZGk54voLdaoBTuT9VodxEevLIHpvCmvy/JSpjI/05elZ/Vt/qlQ7vp4gSV93en2htJLFdFSQPi87rwMusF6Fmsr30eS2U0ydsPXVg+3KsWtj4kr9I64OqLePgfYhhgEgVHrdCLTBQL6ccmNCMJfhYCyz5Vr0ZX1svZzJeJDucDZP1/kMVJlpnZ5Q5bKcjeV1XrYUumJ0rL5Llji6joiLC9zQVSpHdSHesvS3U1mrL9YrvZPhRPqArSuqLEfepqcePT35reu6rnL7csV5XWS9CjSV76M5sJ28iT5h2+IevWuAuAIAAHh4XAeh9Q7dmBA95evqW0t1GSd1d7T3axZWilq2K74eHw6+SqvrcpYyTt9hmuElTwi7fjydGnwnuoP1/aOg/kffwRpXjK6ErxJu7SqVo6PFVlarVfgF8R31xVrPZFD6xQJK6AuRgT5gqwPoW7bJhlqCv7JReVzlh94q87rUeu1rKt9Hc2A76V9A9bWv7Va42524AgAAeGxcB+FhRTdfhJX+i/QTIn0ZLd5EV+PI8rdKVcQ0QbFdyEAC8Tz9aP5Ehq+z8A7rIh+TgczW6ntExSha4iqVo2n96bEvFpAXNs2gL0Qs/WvUeQfQbFuNzTo2r0uuV1pT+T6ag9tJXfy+ztSlr+MffZxeI64AAAAeF9dBuB9xXwBfpPJ9G+HNF2qS7y8Flf59eYk6EJC/ZY8A6x8OwqYUBzIe60fz9x+xT1nP1OfhC3n/4JlitMPVK0eTW7yBSqIGo3VnOPpXLN0BRL4tkkNtquyfGAL5eF/vHfTrTF9H0bxil16vWFP5Pprj2ymsgFT/17NBqlFxNehbSZXlOGpkPGpCh7girgAAwGOqch0EtEjwIaq4UK1/govwZKJ/OFCvLNsOO250XV98P+oYKk/fMWo6jZq9mvIUcFsNVY6aHsfC3tD2mdu1gaP0hYi+3V5fh/iyXZU9uhK3qfIuuR+ecieGqNOY56d0TnWmr6NoXloT66U1le+jqbqd6iCuiCsAAPB4mrhuBJoVtx1aqy+E/pNEl/LF7YPqmzPUxbzkiiCa6aDMdreyWizCjhtHo770y74s4RNwI1mEDZ+uZfaLZ4rRAtsz6SyKslFxHo631DfEN+O2vrt1LDPeScai447FkAqh41w7yseyt24cWirebBNvSR5hOpXGvE1Unb6ImTaXpmRejayX0lS+9ypcPzXsq7WdihTt75J9fdZ2LpqPVjIv4qo9wm2ghqPK9jFwY8Qw2qxyfAI1lMXV2deNwIlKj3WHzr2+rz62omktZ1cPo16F9TCpcVFsW9t0tUwc75k6HPUqyTOZ6V5+cRkgPV2qDLCb7/5ymPcqDd+x6wn3iRqQdfYWKd+w6stgPssNmS8qui6Oiwzf2VrpmCkcshVE8cE8N6SOtL6jDuwl8Vdl+kIlJ6jCeTW0Xo3le8fi9ck4YTvlFOxv4mrn0eOqinidjzp0cQvcEDGMNqscn0ANhXF1ietG4ERxjOWYc+/hIVvpqYI5Vzkalini9PGJ/GDMp/Pcz+9A3U84xN+T/HIk8ywpS+Hy4v2CrAbbHNU9lvni2CrUE1bY/oTP4wg4xv8MHwWoY7TwxVVH213EmXhLetM51FZjlenrKJlXI+ulNJXvozlhOx1HXKV1Mq4AAMDjaeS6EWiQZa67t8c7DOtP/5GkqibuM6A/lZXv5upwLFvlebATspEsdBuimcnUsriqXBA2OnqgIyc1z3+ixkfllcZHcUM9XUNqXp9Ed1CinZkNOowYQhOIK9wKsYd7RwyjzYhPNIG4QtsQk2gKsVXsBr3VAwAAAAAAAMDtUTkKAAAAAAAAoJOoHAUAAAAAAADQSRdrcxQAAAAAroG20nBJlGkBdA3n0azeZrM5a4s8Pz+bVwAAAADQPFWGMa+A81GmBdA1nEez6K0eN0cMoQnEFW6F2MO9I4bRZsQnmvLnzx/5+vWreQfcHjGJphBbebQ5CgAAAAAAAKCTqBwFAAAAAAAA0ElUjgIAAAAAAADoJCpHAQAAAAAAAHQSlaMAAAAAAAAAOum6laPeJOxhcuKZ98BRgXjziQxV3OjY6fWGMpl7amyRQOaToUl3LK0SxuNEduFYY16BJ5Nhdl5DFdiV51Vr+qaWq862fTRnrPux4xhx1eG4qkttV7WNSmMJaKO6xykAAACg7bZn0llUysZ3tpZJa7tmHKAciiHXjj7LDbkgcre2VZCuMG0kzDv1WeV5pWI5N1i2WpK8zLxqTt/UclXftvcpXp8iJ697heNYZl8rTe0/LTMv4qo14nU+bHfM6tCmwZ0ojeETjlPApcUxB1zaZrMxr4B2ICbRFGIr7+wri2oXKP7WSVVcURBEWmkMuXb0mS5w+WacX1yh4DtWOM5SI+Oku7TW1klGxqKYtOIPKs9rF8t2klBRaePxSZ6J9LxqTt/UctXYtvcqXD815Jy87rttXJ4uva8V4qok38cWbgM1lPHdbAVTV7YL7kdxDJ9ynAIurzg+gfNRWYC2ISbRFGIr7+wriyoXKFHFlbV1nKjgTEEQaWUxFN2BVlCxGd+5kgSSKbBZjnqVFVea5mIuzGOXd/V5uVs78z6t5LPMvOpN39RyVc/3fp0fV1mVjmOZfd3c/gtl5tXU/m8q38dWFntqQ6hjVXRM0hXInBPRVsUxXO94ADSlOD6B81FZgLYhJtEUYiuv+TZHvYkMZmt1vbyS6ZMZBxwVyN+N+md9l5d+NCbRf5Hvlvq/+WvaOOvLdLWV7WqqXu0EwVx+qdgTseXbKBoXCz7eZZ3kXWdeI1mo6/LtYi/DA7LzqjN9U8tVJ99Hc+K6VzyOEVfqX91t2ym+fKpDku244q8WnBNxZ+ofpwAAAIB70HDlqCeT8VKVBF3hWhr1RJUI8vyUqfCM9OXpWf1bf6pUecE86ihiMJjJ0nLE9ReqSJfl68yTvE+fV4b3W1S0i/VlEL03svM6IDd9U8t1oXzv0inrXv04Rlypf+fm+9B05dJKFtPR8f0G3JOS4xQAAABwDxqtHPUmY3WxbItLzSiuSFcaWZa+TU1Zz2T8Ot+7W82T37qua/920nMEcxnqCjTLkbdputqj4rxKpz9TU/l2SPXjGHEFoIM4HgAAAODONVY5qu/e09fKtpu/aw9o0mixldVqpRujEt+xwgrSwcQznyrBX9mIJRe7wUUXDAczWas8nbfso/2V5nVo+nM0lW+H1DqOEVcAuobjAQAAAB5AM5Wj6mL5daYulR2fx+lxU/3pm+j6UVn+lrh6NNtW43nCR/h1wdCyxfVXsn/TzLF5HZv+VE3l2yk1j2PEFYAu4XgAAACAR9FI5WhYcFf/17NB2PZjMuhbsJTlWL8fyrzbPXPgoIF8Ke3AJe745YtKdYxp6zARyMf7WqzvL6k7XE6ZVyDzYS/spEc/Sqg7VxnlCoZF84pVmb6p5brUtr1H1de93nGMuOp2XAFdUuV4AAAAANyPhjtkAk4Vd+DyLh/7NS3Bh7zrWquk4xdPJrrSarjftqgWtc24E3Ua8/yULsnVmZemC4YDicqFfq6X/J2ieWlVp29querm+0iaWnfiqttxBXRF1eMBAAAAcEe2Z9JZVM7GtcO0tmveA0ppDJl4Ecveur4Z57tb24rSp+PItaNxlhoZJ9VpHZNWFeKicWGeKr/o3c4J8zoaxyXzqjy91sRyaTXyvVfh+qkh59x1N9Nn0pXs6zrzIq4eR7gN1HCU2V5d2S64H2UxXOt4ADSkLD6Bc202G/MKaAdiEk0htvLOvrKodYFCQRAFDsVQXBDLDbkgcrd2UTo9WE5SYeo7VuZ9WqV5+c7WKkqTGaKKq8J51Zg+dunlilXftvcpXp8iZ617wXGMuNp59LiqIl7nozgnoqUKY/iE4wHQhDjegEujsgBtQ0yiKcRWHo/Vo9VGC19cxxJVIDMssR1X/FwPOSNZbH1x7F3KJG3y2N+hthorzsv/DNuhPK5kXpWn37nscu1U37aP57LrTlyldTmugId2wvEAAAAAuAc9XUNqXp9Ed1CinZkNOowYQhOIK9wKsYd7RwyjzYhPNOXPnz/y9etX8w64PWISTSG28rhzFAAAAAAAAEAnUTkKAAAAAAAAoJOoHAUAAAAAAADQSRdrcxQAAAAAroE2R3FptMGHtiEm0RRiK6+nu/A3r0/y/PxsXgEAAABA81QZxrwCAAA4D73V4+aIITSBuMKtEHu4d8Qw2oz4RFO4kwptQ0yiKcRWHm2OAgAAAAAAAOgkKkcBAAAAAAAAdBKVowAAAAAAAAA6icpRAAAAAAAAAJ1E5SgAAAAAAACATmq0cjSYD8MeJYuGiWcSAQcF4s0nMkxiZyiTuafGFlFpJ8OKaRVvotJMZBeK9eY1V/OK47n2vAJPJsPs9EP1pShdr6rL1VS+D01tM7X+5cekmtuJuCKuKjsWe0AL1ToeAAAAAHdgeyadRVk2rh19VjTYrkmEzotjokhpDOUCyN86VkG6wrSRMO/UZ9Xn5W7tc+blO1uraFo9WLbKPavycjWV752K1+ew3b4sW+262ymzr5Xq0xNXjyJe58OOxx5wK6UxXPN4ADQhjjng0jabjXkFtAMxiaYQW3lnX1mUX6CYyirLUa+AcqUx5NrRZ7rAFQeRX1KhkKR1smnDvK2tkwvCKD6t+IMa8/IdKxxnqZFJtknaY/PaVeLayYwUNX08PlkmrfJyNZXv/QrXTw1lfDdbyC9c59rbibiqlu9jC7eBGspUij3ghopjuObxAGhIcXwC56OyAG1DTKIpxFbe2VcW5RcoqkCsP6PUhyPKYii6A62gUii+cyUVW1HFUkFaU1mTK7CFeezSV5+XKRwWVPrHlVu5kM/M69D3Iv9Z9eVqKt/7VRZX0T6M9pWuxHOcKEaKVrn2dsrs6zrTE1eP5BKxB9xScQzXOx4ATSmOT+B8VBagbYhJNIXYymuuzdHgr2zUP+vLIHoP1BLI3zCAvstLPxqT6L/Id0v93/w9uY2z4ONd1knedebVl+lqK9vVVL3aCYK5/Jqt1Stbvo2icbHsvEayUNf128VeokJ1lqupfB+RL59qV9mOK/5qIdMnMzqn/nYirtS/Gture6rGHtBGdY4HAAAAwP1ornLU/xRdpH9WhcF0w/3DyVy8bpeOUUlUiSDPT5nKokhfnp7Vv/WnShXpv3wXS0Xc7DUVX7rTiJ9L9cKS73u1Nb7OPMm73rzS4k7HBoOZLC1HXH+hio9Z2Xkd4P2WcGmTHxROX66MpvK9W7qAv5LFdHRkn9TfTsSV+nduvg+tauwBdyZ3PAAAAADuR2OVo0F4C5HIcjaW5VqXmCPr5UzGg6HMqSDFJfWn8ubaYq11fJkedAc69iyx3ZVMMzURnvxWpTh7/1a8E+gKKsvSt8Qpet6v87074yrOK5jLcKwSWo68ZRf2PE3liwLEFYAO4ngAAACAO9dY5Wh4V5Ni6ccH9WNY4eCLa+sC/1pmv7zwc+AyAvn4vQnvVs5ay+a3l61YCpt8sOQSN7iMFltZrVZhfPuOiu31TAaTVGxXmZcuWA5makktcd6yj1Wfpal8UYy4AtA1HA8AAADwABqrHNWFe12wX2UeH+yr8W+iy/qy/C1Uj+JSvMlAZktVPCuojF8vx/KaulU521bj5fSn+dg+Nq/w8WldsLRscf39O1xP11S+KEdcAegSjgcAAAB4FM21OVrKtD0HHDSQL7pCqLADl7jjly8qlRY9Yiy2W1oZv579MhVLgXy8r8X6/pJKV2deh+zHdtG8YoHMhz0Z6M52LCfsnGWUS3TKcjWVbxfV2U7EFXEFdEWV4wEAAABwPxqqHPVkott8HO63k6dRSEYVcQcu7/KxH0TBh7yrMlmlzmhyok5jnp/SU9aZ16HYNpW0iaJ5abpgOZCoXOnneijfqbsNmsq3q+psJ+KKuAK6oOrxAAAAALgj2zPpLIqyce1ovGW7W9+M2/ru1rHMeCcZi44riyEVRNFnlr1143BRMWSbGFKhZfi7uErHm3rl2laUR5w4zFPlF73bqTyvGrFdMq94+nSepU5Yrkvne6/C9VPDUWZbFK5z1e1Usq/rbGfi6nGE20ANR5nt1ZXtgvtRFsO1jgdAQ8riEzjXZrMxr4B2ICbRFGIr7+wri/ILFFUgNp/lBstJVWCh6+K4KBIXxHLDfsnMd7ZWUbpwsLZxvZLvWKXxV3leFWO7cF4HlzMeshVflZarqXzvWLw+Rx2poKqynYirnUePqyridT6KylG0VGEMn3A8AJoQxxtwaVQWoG2ISTSF2MprsM3RkSx8VxxbXUonLLFsV3wew0JFo4UvrqPixrzXMWQ7KoYWI/Pe6E9llYs3ldp2Uh1FHGqrsca8dGxv/Vxsh2mT2C6Zl/8p+uniOiotV1P5osJ2Iq7SiCvgQZ1wPAAAAADuQU/XkJrXJ+n1euH/M7NBhxFDaAJxhVsh9nDviGG0GfGJpvz580e+fv1q3gG3R0yiKcRW3g16qwcAAAAAAACA26NyFAAAAAAAAEAnUTkKAAAAAAAAoJMu1uYoAAAAAFwDbY7i0miDD21DTKIpxFZeT3fhb16f5Pn52bwCAAAAgOapMox5BQAAcB56q8fNEUNoAnGFWyH2cO+IYbQZ8YmmcCcV2oaYRFOIrTzaHAUAAAAAAADQSVSOAgAAAAAAAOgkKkcBAAAAAAAAdBKVowAAAAAAAAA6icpRAAAAAAAAAJ3UcOVoIN58IsNeL+xZUg/DyVyNBaraj6GhTOZeYQwF82ESZ/vDxDOJ0ryJ+mwiu4+qzysnzKtkPtr+vAJPJsP08g7Vd6NsXjWWq6l8Hw5xVWu5iKuGqO2qtlHp/gVajxgGAADAA9ieSWdRnI2/dazos9xgOepTIBLHRRHX3oudeLBdk2KnNK0aCpJH6VMf1JlXhu9sLZO2LGlmXqn0ucGyt/tZVF6upvK9U/H6FKmz7qVp1VC0qTL7Wjl5OxNXdyte58PcrW3OkR3aNLgTxDDarFp8AvVtNhvzCmgHYhJNIbbyGrtzNJi/ymytXli2uP5WX8HI1nfFUaVsWc/kdc59RDjCm8h4qf7vxZAqjIksx3t3qgTyd6P+WY74Ot3esBhFqXai9NaXQfS21rzSApm/zkSHern0vHbpbdffLWPy3VjKz/R3o/JyNZXvAyKuiKsbC7y5DHtjWR7ewUBrEcMAAAB4KKrwehadRT6b+K7R/F1FW32ngZ6G2wxgFMeQipTwDjRr6+zfZhzfyZaJoZpxFeaxy7vevHZ8x4qmc+xwHQqTZeZ1aDnzn1VfrqbyvV/EVYy4uray2FMbQp0b9b5Vn1v24f0L3BAxjDYrj0/gPNxJhbYhJtEUYiuvmTtHgw95X6sisvNDcjdWqTELdV2zzd9yBaTEd+x9l5d+NCbRf5Hvlvq/+atSGcFfCZPHd+wdEXy8yzrJu+a8Yt5EBrO12O5Kpk9mXIHsvOrEf53lairfR0Nc1Vsu4uqyfPlU50bbccVfLQ7uX6CdiGEAAAA8nmYqR/3P8DHM56d++OjVZBh3zBF1yOR1u3SMSqICmAoi2a9nETXm6Vn9W3+qVEYcc2pMuuOYsnjzdeZJ3jXnFfJkop8ftt2CR6uzsvM6wPst4RPJSUXcKctVoKl87xJxddpyFSCuTqArm1eymI6O7zeglYhhAAAAPJ5Ge6vf/BzKYDzLtEm1Xs5kPEj35AycLwhvWRNZznQbaLuAi+JtKNkmbj35reufvlW5G66YN1HzEVvco3fUVZxXMJehrhSzHHmbXrDI2VS+HUFclSCuAAAAAAAPotHK0fV6rcrO7q4jE98XJ+qZQ8b0zIELCu+iUzLxtvXFDeNtLbNfqXgLH5W2pOKT0jnBfBh2OmO7CzlaDVZlXrqiaaA7vbHEeZte7m6cpvLtEOKqAHEFAAAAAHggjVaOWo4vq/SjV/2+TBdvUS/Hy9/cPYqLGS2iiqtMvKlXo4J4y7bVWFMwl9eZrvT3jz72rB2bl64Q6+mKprB375Vc6ia8pvLtGuIqi7gCAAAAADyaZipHB19E1xvoNkfzTNtzwEED+aKDqLADl7jjly8q1TH78RbIx/tarO8vqcqu6vMKK6XU//VskLQ/GQ76lj9lOdbv48eti+YVC2Q+7IUd74jlhB1bjHKJTtkGTeX7KIgr4goAAAAAgJ1mKkf7T6LrDZa/i+4NNYVk4KC4A5d3+divaQk+5F3XJCUdv3gy0RVJw3mFSpmo05hsxX2dedVRNC9NVzQNJKpn8mW7Kns0ue5yNZXvIyGuiCsAAAAAAFK2Z9JZFGXj2tF4y3a3vhm39d2tY0XjRY0HtLIYUkEUfWbZWzcOIhVDtomhdAgdizfLMWPDPFV+0budGvMqZKbPpCuZV7yslb4CJ2yDS+d7r8L1U0POCduUuLp8vo8s3AZqOKpo/wItQAyjzSrHJ1DTZrMxr4B2ICbRFGIr7+wri/ILlF2BOD8UVCKgs+K4KBJXzOSGXElMxVtROj1YTlKx5TtW5n1a9XkVKCggFs7Ld7bWfv65Ifv9qLRcTeV7x+L1KUJcVVwu4uok8TofRcUSWooYRptVjk+gJioL0DbEJJpCbOU12CHTSBarqFdn3QxdzLJ1r88VemMGlNFCxZCTjiFLbEfFUK7XGhVvviuOircdNZ2Ot+Qx4ENtNdaZVxUl8/I/w7Yl66i0XE3l+6CIK+IKAAAAAACtp2tIzeuT6E5DtDOzQYcRQ2gCcYVbIfZw74hhtBnxiab8+fNHvn79at4Bt0dMoinEVl6Dd44CAAAAAAAAQHtROQoAAAAAAACgk6gcBQAAAAAAANBJF2tzFAAAAACugTZHcWm0wYe2ISbRFGIrr6e78DevT/L8/GxeAQAAAEDzVBnGvAIAADgPvdXj5oghNIG4wq0Qe7h3xDDajPhEU7iTCm1DTKIpxFYebY4CAAAAAAAA6CQqRwEAAAAAAAB0EpWjAAAAAAAAADqJylEAAAAAAAAAnUTlKAAAAAAAAIBOaqhy1JNJrxf2Jlk+TFQq4JhAvPlEhkncDGUy99TYAoGKu+EwFWNDGU5K0mreRKVJx+EV51Vr+qaWq0a+D6elcZWh5qvSq1mVI67uT914AlqtwnEKAAAAaLvtmXQW+WzcrW3Glw+2SgWUxVDEtffjxgz2XvT4ztYqSqcHqzjWwrxT+VxtXjWnb2q5Kud7p+L1KXK1fa2ctp3VMdSK0h1KlpkXcdUa8TrnnBBPwC3EcXlYteMUcGnV4hOob7PZmFdAOxCTaAqxlXf2lUXdCxTfsbiQRkZpDLl29JmuNPDNOL+oMOZvnWRcnFBRaePxlpMaH4qmScZfbV41p29quSrne7/C9VNDTivjasd3sxVo5fuCuGqrcBuoIeuUeAJuoziGd6ofp4DLOxafwKmoLEDbEJNoCrGVd/aVRa0LlPiuGa6ikVIWQ9EdaNY2V1+QiyM3ulO5MK5KPgvz2OV9vXnVm76p5aqe7/26r7jSdOVZ9OORrlx0nKiisXRXZObV1P5vKt/HVhx79bYlcEvFMazVPE4BDSiPT+A8VBagbYhJNIXYyrtih0yBzF9nshZb3MXIjAPKBPJ3o/5Z3+WlH41J9F/ku6X+b/6advpGslDXytsacRV8vMs6yfua86ozfVPLVSffR9PWuNJ8+VyL2I4r/moh0yczugRxdW/qxxPQPvWOUwAAAMA9uFrlaDB/lZm6oLacH6qICBwTFcDk+Un261lEjXl6Vv/WnyrVEd5vWap/1pdB9N7wdeZJ3tec1wG56Ztargvle5faHFe68mwli+moIH0ecfVASuIJaJ96xykAAADgHlypctSTX1HNqLxNuZzGlQRzGY6XBXHnyW812v52wWr6c+dVOv2Zmsq3y64ZV6WIq4fBtgQAAACAm7pO5Wh8V8z3F+40wHXoCoeBbsbBEudtmo274K9s1PiL3aR17rwOTX+OpvLtsmvG1SHE1WNgWwIAAADAzV2lctTTtziJLf9wVwyuIJgPpacrHCxbXH8l+2GXbavxPOfO69j0p2oq3y67ZlwdQ1zdP7YlAAAAALTDFSpHo8c/xf5GW6OoYSBfSjtwiTt++aJSpQUyH/ZkYJpw0J1FjHIVDoF8vK/37mK+5rxiVaZvarlOyfdRtD2uqiCu7luVbQkAAAAAuJbmK0fNI/XXaYcPjyPuwOVdPvZrWoIPeV+r/5mOX3SFw8B0+uXLdlX2iGrUaczzU/rTa85Lqzp9U8tVN99H0ua4qoq4ul9VtyUAAAAA4Gq2Z9JZHMrGdyz1ubV1fDMC2FMaQ64dfWbZWzeOH9/d2laU3nbNOMW18+MKhXmq/MzbxBXnVXl6rYnl0mrke6/C9VNDzhX39Vnb2UybS1MyL+KqPcJtoIZ9tbYlcENlMZxTdpwCGlQ5PoGaNpuNeQW0AzGJphBbeWdfWRy7QIkKgwWVBoBxKIbiyoTckC6J+c7WKkqTGaIYDCvrLWcb19ukXWVeNaaPXXq5YpXyvWPx+hRpXVwVKal0IK7aL17njBO2JXArcUweReUobqByfAI1UVmAtiEm0RRiK6/hx+ppZw7nGS18cR1LLPNeBZPYjiv+ItVMg/8p+ond4w611XileVWefueyy7VTKd8H1bq4qoy4ulsnbEsAAAAAQPN6uobUvD5Jr9cL/5+ZDTqMGEITiCvcCrGHe0cMo82ITzTlz58/8vXrV/MOuD1iEk0htvKu0Fs9AAAAAAAAALQPlaMAAAAAAAAAOonKUQAAAAAAAACddLE2RwEAAADgGmhzFJdGG3xoG2ISTSG28nq6C3/z+iTPz8/mFQAAAAA0T5VhzCsAAIDz0Fs9bo4YQhOIK9wKsYd7RwyjzYhPNIU7qdA2xCSaQmzl0eYoAAAAAAAAgE6ichQAAAAAAABAJ1E5CgAAAAAAAKCTqBwFAAAAAAAA0ElUjgIAAAAAAADopIYrRwPxJkMZ9nphz5K93lAmc0+NBapSMTSfnBZD3iScZuKZ9/vCzyey+7jGvAJPJsOhSRelHaoZlS7X/rxqTd/Ucp2xbe9elXVX2zL5vGxIx49BXHU4riqou4+BVouOkyqEAQAAgPu1PZPOojgbf+tY0We5wXZNGuBQDG23rr0XO/FwLIZ8Z2uZtGVJw7xTH1aeVyrv3GDZ26LZZeZVc/qmluvkbXsn4vUpUm3d3a1dlCYzlGzXVD5N7T8tMy/iqjXidc45YR8DtxDH5WHqGGmu8zr09UYLVItPoL7NZmNeAe1ATKIpxFbe2VcWpRcorh19Zjlb1zfj/Liywdo68Th03vEYsrMxdLQwlq2YL04XpbHiQKw8r13edpJQUWnj8UmeifS8ak7f1HKdvG3vR7h+asi5wLr7jlWSlriqlu9jC7eBGrJO2cfAbRTH8I7vZiv6u/LdRjsci0/gVFQWoG2ISTSF2Mo7+8qi7AIlqjwoqAQ1hWcKgYiVxVB0B1pBDMV3X5WUxpLYc6JYK0wW5rHLu/q83KiCvzDTks8y86o3fVPLdeq2vSeXjqvEoXSZfd3c/gtl5tXU/m8q38dWHHv1tiVwS2XHT/Vl3jpW9OOQ/hHk4HkWaEh5fALnobIAbUNMoinEVh4dMqGlAvm7Uf+s7/LSj8Yk+i/y3VL/N3/z7fR5ExnM1mK7K5k+mXEFgo93WSd515nXSBbquny7GIXvqsjOq870TS3Xidv2IZy77oHMX2eiIkzcgm1NXKl/J2/bR1d/HwPt48vnWsR2XPFXi4PnWQAAAOBeNFY52n/5LpasZfY6Fy8uDeuOKH4u1QtLvudKz0BaVACT5yfJR0pfnp7Vv/WnSpWm4mus4st25Vj9g68zT/I+ZV4FvN8SRveXQfTeyM7rgNz0TS3XhfK9S+etezB/lZma3nJ+SFGIEVfq37n5dlHJPgbaR1fyr2QxHR0/9gAAAAB3ork7R/tTeXNtsdYzGQ9Mr7yDsSzXVnRXH1fVuDBvouKr5I6+LE9+L0Xsbxe8gyuYy1BXzFqOvGWCu+K8Sqc/U1P5dpInv6Ka0ZJtSVzhBGxLAAAAALipBh+rD+Tj90b0jURZa9n89jr8aCWaEMyHousXbHdReEdfRvBXNmLJxW7S0pUbA/2otSXO2zR7N02VeR2a/hxN5dtV8d1931+KtyVxhbrYlgAAAABwc41VjnqTgcyWqsin26XS7ayFgy+ubcl6OZbXOdWjuJBgLq8zHWv+0cfptWxbjefRlbI9Xblh2eL6+Tuij83r2PSnairfLvP0rZpiyz8lG5O4Qh1sSwAAAABoh4YqR6NHPnXbj6tMu1R9GS3exLFE1rNfKhVQZiBfSjtwiTt++aJSmYoi9X89G0TNN8SDvpVUWY71+6FE9fGBfLyv9+7+qz6vnUDmw17Y+ZN+HFZ3TDHKVW4UzStWZfqmluuUfB/FqeseH9O+ldyZTFx1O67qqLItAQAAAADX0uBj9cA54g5c3uVjv6Yl+JD3tfpfpTOanKjTmOen9JR156UrNwamYx5ftquyx2GL5qVVnb6p5Wpq296DE9fdPFJf3sYncdXtuKqq6rYEAAAAAFzN9kw6i3w2/taxovGW7ap3MX/r2lY0jRoPaMUxpLh29Jllb904iHx3a5vYOhpCZvpMunCcys+8TdSYl2vXmX9+XpWn15pYLq1GvvcqXD815Jyw7r6jj1vW1onT7yvZ143sv5J5EVftEW4DNeyrtS2BGyqL4RzznSemcU2V4xOoabPZmFdAOxCTaAqxlXf2lUXpBYrvbC3zWX44UMmAzonjokhcmZAbqpTECgptYSWX5aQq7HcqzetgXMdDVHFVOK8a08cuvVyxs7btHYjXp0jddY/SZ7dfGnG18+hxVUW8zhknbEvgVuKYPIrKUdxA5fgEaqKyAG1DTKIpxFZec4/V96ey8l1xbFUcTLFsh84nUNlo4YvrWLKLIktsxxW/Ss9LOYfaaqw4L/8zbN/0uJJ5VZ5+57LLtXPZbXtf6q37sfYyiau0LsfVQSdsSwAAAABA83q6htS8Ponu+EY7Mxt0GDGEJhBXuBViD/eOGEabEZ9oyp8/f+Tr16/mHXB7xCSaQmzl0SETAAAAAAAAgE6ichQAAAAAAABAJ1E5CgAAAAAAAKCTLtbmKAAAAABcA22O4tJogw9tQ0yiKcRWXk934W9en+T5+dm8AgAAAIDmqTKMeQUAAHAeeqvHzRFDaAJxhVsh9nDviGG0GfGJpnAnFdqGmERTiK082hwFAAAAAAAA0ElUjgIAAAAAAADoJCpHAQAAAAAAAHQSlaMAAAAAAAAAOonKUQAAAAAAAACd1HDlaCDzyTDsVTIahjLxAvMZUEUg3nwiw3QMzT01Ni+Yp2MtO0w8kyjNm6jPJrL7qPq8CmO7NK2yP6/Ak8kwO/1QLWTZvCovV1P5PjS1zdT6F8ZIqOZ2Iq6Iq0NqbUughYhhAAAAPJrtmXQWxdm4W9t8lhts16QBDsWQiiJ7L3bioSCGStOqoSjkwvSpD6rPS8W2VZCuMG0kMy/f2VpF0+rBslXuWZWXq6l871S8Poft9mXZatfdTpl9rVSfnrh6FPE659TclsCtxHGZQwyjBeKYAy5ts9mYV0A7EJNoCrGVd/aVRdkFSlJAtpyt65uRW1+Nt8LxHSon44iyGFLBYmJIFbjiGPLLKrP8raPHq3hLwu2gKL3lmNQ15uU7UQxbauQutOO01jbOcic9L7OcYZ6phGr6eHyyTFrl5Woq3/sVrp8ayvhutpBfuM61txNxVS3fxxZuAzVk1dyWwA0Rw2iz4vgEzkdlAdqGmERTiK28s68sii9QVGFYjy+sqDIX110pJeOosovcqIK9oFIovnMlE0Mm5qrGVZjHLu/q8zLxWxDbceVWbhEy8zq0nPnPqi9XU/ner7K4ivZhtK90JZ7jRBV6Ratceztl9nWd6YmrR1Ice/W2JXBLxDDarDg+gfNRWYC2ISbRFGIrr9k2R5+fpG9e7vTl6Vn92/ylfSocEMjfjfpnfZeX/SDqv8h3S/1Px1DwV8LkXwbR+yOCj3dZJ3nXmVdfpqutbFfTTGwHwVx+zdbqlS3fRtG4WHZeI1mo6/rtYi9RoTrL1VS+j8iXT7WrbMcVf7WQ6ZMZnVN/OxFX6l+N7dUtdbYl0EbEMAAAAB5Ts5WjhQVhU4Bef4ofjQAKRBVYByvY0zHkf0qYXI1JdxQxnMylqA8wX2ee5F1zXilxJ1CDwUyWliOuv1DFx6zsvA7wfstS/dtV8J6+XBlN5Xu3dAF/JYvp6Mg+qb+diCv179x8uyi3LYE7QwwDAADgjjVUOTqSb7b6t57Ja6YH00C8yauEN0IBFxSENe4iy9lYlutdgK2XMxkPhjLPVJB68luV4uz9W/FOoCuoLEvfEqeoeB+/zvd+EKg4r2Auw7FKaDnyNj1a3VVdU/miAHGFE7Atce+IYQAAANy5xu4cHf1wRBft18uxDMxdfL3eQMLrZ1PmBy4lvItOsfSj0vqxv3DwxbXDKJTZLy/8PBQ+gm/JJW5wGS22slqtwvn5jprXeiaDSc156YLlYKaW0hLnLftY9VmayhfFiCvUxbbEvSOGAQAA8ACae6y+P5WV74qdqgm1LFtcfyX/6McrgQvSlUm6ImmVeVS6r8a/ia5bkuVviauWsm01Xk5/Wn9e4ePTumBpvhuXuummqXxRjrhCHWxL3DtiGAAAAI+i2TZH+yNZmLufwoqr1UJG/bjTji9Cy1QoN5AvukLoULu1lWLItHWYCOTjfS3W95dUJeo15xULZD7syUC3MWE5YcdAo1yiU5arqXy7qM52Iq6Iq6qqbEugzYhhAAAAPJbGKke9iX6MfpLc6ZTwfoVtjhYX7IFY3IHLu3zs17QEH/KuYmjX8YsnE91sw3C/XUZtv1Im6jTm+SkdfZeaV9QO5E7RvDRdsBxE3wPHz/VQvlNnubSm8u2qOtuJuCKuqqi6LYG2IoYBAADwgLZn0lkUZeM7VvSZ7W79eJzrbK0wvbV14pHovLIY2rp29Jllb91dEG1tK0qvQivh2tE4KxVvOq1j0qpCXDQuzFPlF73bueK84unTeZY6Ybkune+9CtdPDUeZbVG4zlW3U8m+rrOdiavHEW4DNeyrtS2BGyKG0WZl8Qmca7PZmFdAOxCTaAqxlXf2lUX5BYoqEJvP9oekkA8ocVwUiQtiuSFXMiuPN7GcXQW9rrRPvU+7yrz8+AeCQ0O24qvScjWV7x2L1+coU6FXttpVthNxtfPocVVFvM4ZJ2xL4FbimMwghtEScbwBl0ZlAdqGmERTiK28BtscHcli64tjq0vpmGWp8rEvK1rtR0WjhS+uY8kuilQMOa74i5F5H1Px5rvZeFNpLVulTR77O9RWY8157cd2nPbYvPxP0U8X11FpuZrKFxW2E3GVRlyVOGFbAq1CDAMAAOBB9XQNqXl9kl6vF/4/Mxt0GDGEJhBXuBViD/eOGEabEZ9oyp8/f+Tr16/mHXB7xCSaQmzlNdtbPQAAAAAAAAC0FJWjAAAAAAAAADqJylEAAAAAAAAAnXSxNkcBAAAA4BpocxSXRht8aBtiEk0htvJ6ugt/8/okz8/P5hUAAAAANE+VYcwrAACA89BbPW6OGEITiCvcCrGHe0cMo82ITzSFO6nQNsQkmkJs5dHmKAAAAAAAAIBOonIUAAAAAAAAQCdROQoAAAAAAACgk6gcBQAAAAAAANBJVI4CAAAAAAAA6KQrVo56Mun1ZOKZtzmBePOJDFUa3QtlrzeUydxTY9FtZ8SFNwmnKY258POJiszYFecVqO/DcGjmE81rqCYunleN5Woq34dTfd2DeXp7ZofC/U1cdTiuqghkPsluS7YP7texazsAAADgDmzPpLM4no27ta0one2aUXtcO/o8N5RNgIcR7+siJ8eF72wtk/ZgzKU+vNq8Uulzg2Wrb0tW5eVqKt87Fa9PkTrrXppWDUWbKrOvlZO3M3F1t+J1ztudC3NDh7YP2i+Oy8OOX9sBTagWn0B9m83GvALagZhEU4itvMbvHA28uQx7Y1muzYgi3kTGS/XfssX1t/pqR7a+K+qiW2Q55o6Erjo5LgKZv87kUMjpNH83Kusvg+jt1ea1S2+7fjQfMy9Hz2u9lJ/z1D1klZerqXwfUK11j/adWI748TZNDYtRlGqHuOpsXFUQzH+G50LLdnfxlGyfn5LelECbVbq2AwAAAO6FKpydRWdRnI2/dSwr+tyyt45jh6+L7i6I7jSyto4qLWbEdyxxS8JDK4uhU+PCd3TcqekOxFyUxy7v683L3dql+eU/q75cTeV7vy4TV4e2a4HMvj59OxNX96049vQ5UY23HPUqK9rf3H2H9iiOYa36tR3QlPL4BM7DnVRoG2ISTSG28hq8c9SXz7WI7bjirxYyfTKjc+I7s77LSz8ak+i/yHdVopbNX5UK3XJiXHgTGczWYrurAzGncv94l3WS9zXnNZKFuq7f5m85LFBnuZrK99HUXPfgr4TJ4ztBjyCu1L+669sZfZmu1LZcTdWrnSCYyy+1v9XZUr5V2czATVW9tgMAAADuR4OVo7pQvZLFdJQpCOZFF9ry/FSQri9Pz+rf+lOlQrecEheeTPQzvbZb8Lhzlq8zT/K+5rwO8H5L+ERyUhF3oe9GU/nepZrr7n+Gj5Q/qzHpDomGk7l4BbV8xJX6d26+HRF39DUYzGRpOeL6C3XWBNqu6rUdAAAAcD+u2Fs90CxvMpal2OIevcvNk9+6/umM27QuPq9gLkNdKWY58ja9YJGzqXw7IghvhRRZznTberrmL7JezmQ8GO61EUlcoTpduW1Z+nZaZa3i6XXe4btqAQAAAOB2qBzFQ9B3YUU33FW4+yp8VNqSik9K51x8XrqiaaA7vbHEecs+cnuWpvLtkPDuTMXSj5Dqx8vDwRc37EFnLbNfqR6GiCvUMFpsZbVahTHl696t1jMZdL3HKgAAAAC4ASpHcf+CubzO1mI5/tFHkbVsW401XXhe4aO1uqIp7N17JZe6Ca+pfLtGV2DpyqtV5hHSvhr/FvXWvvwtcXUWcYVT9af5eAIAAAAAXEcLKkcH8kUXCgs76og7+PiiUqFbqsdFWFGk/q9ng6RNyHDQt+Epy7F+Hz8CHcjH+1qs7y+pyq5rzisWyHzYCzve0Y8m644tRrlEp3w3msr3UVxq3U0bmgniqttxda79eAIAAAAAXEsLKkfjjjre5WO/RB18yLuuMajS6QgeTFNxEXUa8/yUnvKa89J0RdNAonomP9d79U7d5Woq30dSZ909megKymFRW5D7lX3EVbfjqopD8RS1IQsAAAAAuIHtmXQWlbJx7TCd7Zr3aeYzseyt65txvru1rSjvwmnwMEpj6Ny4KIq5cJzKz7xNXHFerl0xT63GcjWV770K108NOSdsU0uNjJPqtI5JazlmbMm+Pns7m+kz6UrmRVy1R7gN1LCvcjwBN1YWwzlFxyigYZXjE6hps9mYV0A7EJNoCrGVd/aVxaUuoONCY27givvhxfu6yFlxURBzvmNtxXJ2FRMpV5mX72yt/fxzQ7biq9JyNZXvHYvXp0j1dXe3dlE6PaT2LXG18+hxVUW8znnV4gm4tTguj6JyFDdQOT6BmqgsQNsQk2gKsZXXmg6ZRgtfXMcS3WRdxBLbccWv0jsJHtZl4+JQW41Xmpf/GbYtWUel5Woq3wdVfd1HsvBdcexdSp3WslXa5PFy4iqty3F1nIqnrZ+Lp3D7lDZXAAAAAABoUk/XkJrXJ9GdhmhnZoMOI4bQBOIKt0Ls4d4Rw2gz4hNN+fPnj3z9+tW8A26PmERTiK281tw5CgAAAAAAAADXROUoAAAAAAAAgE6ichQAAAAAAABAJ12szVEAAAAAuAbaHMWl0QYf2oaYRFOIrbye7sLfvD7J8/OzeQUAAAAAzVNlGPMKAADgPPRWj5sjhtAE4gq3Quzh3hHDaDPiE03hTiq0DTGJphBbebQ5CgAAAAAAAKCTqBwFAAAAAAAA0ElUjgIAAAAAAADoJCpHAQAAAAAAAHQSlaMAAAAAAAAAOumKlaOeTHo9mXjm7UF10qI7yuIiGq97Ly0fJirVHm+yNz4Qbz6RYTLNUCZzT40tEKh5DocmXZR2qBasMK22P69a0ze1XDXyfWhlcRULZD7JbtOJd2ArEVfEVR3hPuR8hztS9zgFAAAAtN32TDqL49m4W9uK0tmuGVWqTlo8gvNjSH1m8igfbJUqy7XV+FRm4fuiafdn6DtbqyidHqz8fLTMvGpO39RyVc73TsXrc9ix482B2CrZTsRVQTo9lGyvRxSv81GpbduhzYM7UBrDJxyngEuLYw64tM1mY14B7UBMoinEVt7ZVxbHLlB8N3shfagAWCctHke8v8ucExe+Y5VM428dS7aW40dvXTvKXxfuzCg144KKs2i6aFycUFFp4/FJnon0vGpO39RyVc73foXrp4YyVeIqqeiznN12UtvatYmr8/J9bOE2UMNhu23bpW2D+1Acw6ccp4DLK45P4HxUFqBtiEk0hdjKO/vKovwCRV9ERxUIuqDsOFGhubgAWCctHk2439WQd2ZcxHe4FE0QfmZt43JcVAm2e5/I5eFGdxIWLkTJZ5l51Zu+qeWqnu/9Oj+uzHazHDXFPlNJsD8RcVUx38dWHns70Q83altxvkMLFcdwveMB0JQqx1jgFFQWoG2ISTSF2MprsM1RXz7XIrbjir9ayPTJjC5UJy2645y4CGT+OpO12OIuRmbcTvDxLmvru7z0w3fyd6P+Je9T+i/y3VL/N39Ne2ojWajr8m1BnmWy86ozfVPLVSffR1Qzrp6fZH8zqQ0lT8/q3952Iq7Uv87GVQ3eRAYzdXRyV5zvcEfqH6cAAACAe9Bg5ai+iF7JYjoqqFjYVyctuuP0uAjmrzJbi1jOD5VLnq9rx5JKr6iy7GAl2PpTpTrC+y1L9c/6MojeG9l5HZCbvqnlulC+d6tmXBVW6JmKwL3tRFypf52Nq6o8mYzVlrNdoY4JD6PkOAUAAADcgyv2Vg9ciye/oppReZsWVR158lvXTXy7YM1EMJehrvDIzbPivEqnP1NT+XbCSL7Z6t96Jq+ZnpgD8SZR5XsWcYXjvMlYliV3tAN3ieMBAAAA7hyVo3g88R0s31+K76oL/spGLLnYDS66YDjQj/Bb4rxNs/OsMq9D05+jqXw7ZPTDUVtPZL0cy6DXk144DCSsB9AfpBFXOCKYD8PYsd1F4R3twN3heAAAAIAHQOUoHo6nb6kTW/4puYMl21bjeXRlR08XDC1bXH8l+7M8Nq9j05+qqXw7pz+Vle+KnaoJtcw2/Uc/Jp5CXOGgYC6vs7VYjs/j9HgIHA8AAADwKKgcxYOJHjcW+1vJnVmBfLyv9+4qHciX0s5i4k5mvqhUaYHMh72wUxX9KKHu2GeUKxgWzStWZfqmluuUfDusP5LFaqW7xQ2HVbhN97cTcUVcHRZWaKv/69nA3IFsBn0rqbIc6/dDmec3HtAyVY4HAAAAwP2gchSPxTxSX94WY9RpzPNTuiQXdxbzLh/7FRPBh7zrGo1MJzO6YDgwHT75sl2VPUpYNK//v707yE6TffsA/GQvSQdvswKygrSTb9RpZzhMFvHN3gkZprNOO+qkuIJkBbaDF/fiHxSMBqOg0qBc1zkcUeEBHn8xcB+EQtP5u1qvtu0O13hUFKxGYVw+Xxr/u+jnZYFSruQKhqDp9wEAAJyQ2YGKJho1k8bz6eK0fL5Nm2k5ecfMUJZE+TTRLMnKF16btxHPak2UbYcof6+aN0tncbRYt9VlpnH9tY3eWFbj+QtdrFehRbunar59+bBT2RebtnmRp7yd/M2Xbkpm0bztlZy98Vl38vm9sSy56o95H+RDI2WfDaVvOA1vZbjV9wF05K18wqEmk0k5Bv0gk3RFtuoO3rNovIPS5gDQweKgHDNDiwO3DUWq0rzYFSXLQteq6qCvNqwuMKsKY9uGxfI3LqvF/JVjr1elUbsnrNqenbbmKp3FVb+8GqKVCrxcvTj3XDVRbXMj/t/RQxszvMf3AXShyhscm2IBfSOTdEW26vysnjOy67qG267VGMLtYxbSJAr5wV8pCnGShmz17inZn/l1A3d7Y1mN539x3PV60ajdwbsNj7MsJPFLLxW3qY/TLDwt7z4iV6vkCs7UHt8HAABwCi6KCmk5vpfihhKFA5thwGSILsgV70X2OHUyTJ/JJ135/ft3+PjxY/kM3p9M0hXZqnPmKAAAAAAwSIqjAAAAAMAgKY4CAAAAAIN0tGuOAgAA/A2uOcqxuQYffSOTdEW26i6KW/iX43u5vr4uxwAAALqXH8OUYwAAh3G3et6dDNEFueK9yB6nTobpM/mkK86kom9kkq7IVp1rjgIAAAAAg6Q4CgAAAAAMkuIoAAAAADBIiqMAAAAAwCApjgIAAAAAg/QXi6PjMLq4CKNx+fS1af7+zc38DpSL4Sbc5BNPy7cZqFa5mIaH0fq0o4ctGRqP8mlGeTIr0zB+GIWbRvMfuKyW29V4vbpq99y07af8s27cT3I13FztY/4ZbvnfCL2WfzfILwAAp252oKKJ3c2kszhaTBen5UursmQWle3UhijO5+acVZ91TatcvGSsNmwMXT5HvP7e/Hmj+Q9cVsu8N16vrto9UdX21LTqp2yWyJVctVRt804rfTug7uEENMvwjn076EizfEJ7k8mkHIN+kEm6Ilt1B+9Z7NpBydL1A+v6DvRL8SFOs/K1XJYuX4+Sldc5O1U21rXLRZZEi9fygC1fzaddHLhFs3qEFu0v20jj+fzzYk817XL+9dwetqyWeW+8Xl21e7rm25cP6/btp2S9n+Zty9X+7Z63eR/kw3YvfTukvuE07Mrw7n076M6ufMK+FAvoG5mkK7JVd/Cexds7KMWB3+JgvzhQTpLFQXN9B7osNGzcs972Hudic4ba5KIsMkRJPrauKjjVmpmfsfVScFqc7bahAFWd2XW0ZbXLe/P16qrd03V4rqrPdEM/lUXAtcJgQa4atnveNmdv3TJbb/5vhPfzdoab7ttBd97OJxxGsYC+kUm6Ilt1HV5zNAt/nkOIkzRkT4/h7kP5cs1teMz3c2aPt+VzKLTJxWW4e8qnfbrLx15Mpw/h3/s8hCEO//eqmemvH+E5+hI+z2eYhv8m+cPy+YrLz+FLlD9O/iuvmXjostpsV5v16qrdc9Pt941c5Q+DzFVL41G4yj/XOH3a8r8R+qjpvh0AAJyODoujxUH1U3i8u1072G9l/DN8yx+if64Wz6GwIxfTh8WNY66u7sO3KAlp9pincV1WHN1dfyizuTjYe3m+6jJ8uM4fnv/kU9W1X9YWte3af73WdNXuudmQq8vPX0IUnsP914cwrqp6xc2J/n8+ZfjyqgooV/mDXO2Q5+dT3nNxGjqq0UOHjrBvBwAAPfMX71bf0vQh3BQHkFESvt/ZBafUIBdF0SiKitPUcs/34dPXh1dnq43Dz6I28fpUvD0cbVld5d3fUTNv9dPlXfiexiEqPtur8u7rV5/Ct+docdbfWpfKFbuNR3l+QhxSlVEAAIBe6GdxtDjwvroPzyEKyff1n5kyYA1zcfs4C09PT8XFqEKWRPPi0tVoXL6bm/4XJnkbKycI7u0oy+oq7/6OmtnaT9Pw6+ckf++15zD5OV4vWMoVOxRnBBc15TitnwkMAADA++hdcXT+c9LiwDuKQ5q9PjOLodo3F5d330NRWwrffoaqtLR+rcbj2WdZXeXd31Ezu/ppPLoK99+eQ1RcX6+49uZ8yEIaR+H526fw9eGlPCpXbDV9CF/viyxlfk4PAADQIz0qjk7Dw83F/CYVxU81iwv93zrw5uBclNc6XJqGXz+eQ/Tl88oZb1fhn6L4tPFmMdVNZv7Jp9qlybIqTbZrn/Xqqt1z06SfFj9dL64N+bR2fb3LcPu4KFg+3/9bFizlSq62mxe088fn+6vF5RmqoTiVNPftU/H8JqzU2wEAAPgLelIcLQ68r8LiuDur3bGZoWqai3EYFUWGm9fXZSyUBa6lxU1jrj+stlTdLOZH+PW6gemv8KOoaCxvMnPosgpNt6vNehW6avfcdPF9I1dyBQAAwEmaHahoolEzaTyfLk7L5yvSeNHGpvc4f29lqE0uqmmjfOKsfG2WpbMkKl9PylfnOYxntSbLfIYof69qIJ8/LudfXYdDl9Uq73us17HbPVXz7cuH15r3U/bymeYTLz/rfCyNo0X7VSNytTCAXDUx74N8aKTss6H0DaehcYbll3fQOJ/Q0mQyKcegH2SSrshW3cF7FgfvQGfJLCrbeHvYUHTgbFSf85rWuUhn8cZp8iFKlsWmLInWnq+qikC1oRbaA5a1R94brVdX7Z6wanvWtO2nrdNHs6peKVcvzj1XTVTb3IjiEj3UOMPyyztonE9oSbGAvpFJuiJbde//s/rsz4Y7QTN4rXNxGx5nWUjiqHxeiEKcpCFb/gx427UaizuEZyFNonyuSjl/7e4pByxrj7w3Wq+u2j03bfvp8i48ZemrzzrvqThZuSGRXK0aZK4AAAA4WRdFhbQc30txQ4nCgc0wYDJEF+SK9yJ7nDoZps/kk678/v07fPz4sXwG708m6Yps1fXobvUAAAAAAH+P4igAAAAAMEiKowAAAADAIB3tmqMAAAB/g2uOcmyuwUffyCRdka26i+IW/uX4Xq6vr8sxAACA7uXHMOUYAMBhDj5ztKDqzKFkiC7IFe9F9jh1MkyfySddkCv6RibpimzVueYoAAAAADBIiqMAAAAAwCApjgIAAAAAg6Q4CgAAAAAMkuIoAAAAADBIiqMAAAAAwCApjgIAAAAAg6Q4CgAAAAAMkuIoAAAAADBIiqMAAAAAwCApjgIAAAAAg6Q4CgAAAAAMkuIoAAAAADBIiqMAAAAAwCApjgIAAAAAg6Q4CgAAAAAMkuIoAAAAADBIiqMAAAAAwCApjgIAAAAAg6Q4CgAAAAAMkuIoAAAAADBIiqMAAAAAwCApjgIAAAAAg6Q4CgAAAAAMkuIoAAAAADBAIfwP1rxviBZH8IIAAAAASUVORK5CYII=;" vertex="1" parent="1">
          <mxGeometry x="406" y="186" width="784.91" height="391" as="geometry" />
        </mxCell>
        <mxCell id="sMQmqNVfr5RTIaXLuekj-8" style="rounded=0;orthogonalLoop=1;jettySize=auto;html=1;exitX=0;exitY=0.5;exitDx=0;exitDy=0;entryX=1;entryY=0.5;entryDx=0;entryDy=0;fontColor=#000000;strokeColor=#000000;endArrow=none;endFill=0;" edge="1" parent="1" source="sMQmqNVfr5RTIaXLuekj-2" target="sMQmqNVfr5RTIaXLuekj-4">
          <mxGeometry relative="1" as="geometry" />
        </mxCell>
        <mxCell id="sMQmqNVfr5RTIaXLuekj-9" style="rounded=0;orthogonalLoop=1;jettySize=auto;html=1;entryX=1;entryY=0.5;entryDx=0;entryDy=0;fontColor=#000000;strokeColor=#000000;endArrow=none;endFill=0;exitX=0;exitY=0.5;exitDx=0;exitDy=0;" edge="1" parent="1" source="sMQmqNVfr5RTIaXLuekj-2" target="sMQmqNVfr5RTIaXLuekj-5">
          <mxGeometry relative="1" as="geometry">
            <mxPoint x="441" y="785" as="sourcePoint" />
          </mxGeometry>
        </mxCell>
        <mxCell id="sMQmqNVfr5RTIaXLuekj-10" style="rounded=0;orthogonalLoop=1;jettySize=auto;html=1;exitX=0;exitY=0.5;exitDx=0;exitDy=0;entryX=1;entryY=0.5;entryDx=0;entryDy=0;fontColor=#000000;strokeColor=#000000;endArrow=none;endFill=0;" edge="1" parent="1" source="sMQmqNVfr5RTIaXLuekj-2" target="sMQmqNVfr5RTIaXLuekj-6">
          <mxGeometry relative="1" as="geometry" />
        </mxCell>
        <mxCell id="sMQmqNVfr5RTIaXLuekj-11" style="rounded=0;orthogonalLoop=1;jettySize=auto;html=1;exitX=0;exitY=0.5;exitDx=0;exitDy=0;entryX=1;entryY=0.5;entryDx=0;entryDy=0;fontColor=#000000;strokeColor=#000000;endArrow=none;endFill=0;" edge="1" parent="1" source="sMQmqNVfr5RTIaXLuekj-2" target="sMQmqNVfr5RTIaXLuekj-7">
          <mxGeometry relative="1" as="geometry" />
        </mxCell>
        <mxCell id="sMQmqNVfr5RTIaXLuekj-14" style="rounded=0;orthogonalLoop=1;jettySize=auto;html=1;exitX=0.5;exitY=1;exitDx=0;exitDy=0;entryX=0.5;entryY=0;entryDx=0;entryDy=0;endArrow=none;endFill=0;strokeColor=#000000;" edge="1" parent="1" source="sMQmqNVfr5RTIaXLuekj-2" target="sMQmqNVfr5RTIaXLuekj-13">
          <mxGeometry relative="1" as="geometry" />
        </mxCell>
        <mxCell id="sMQmqNVfr5RTIaXLuekj-22" style="rounded=0;orthogonalLoop=1;jettySize=auto;html=1;exitX=1;exitY=0.5;exitDx=0;exitDy=0;entryX=0;entryY=0.5;entryDx=0;entryDy=0;endArrow=none;endFill=0;strokeColor=#000000;" edge="1" parent="1" source="sMQmqNVfr5RTIaXLuekj-2" target="sMQmqNVfr5RTIaXLuekj-21">
          <mxGeometry relative="1" as="geometry" />
        </mxCell>
        <mxCell id="sMQmqNVfr5RTIaXLuekj-2" value="pegawai" style="whiteSpace=wrap;html=1;align=center;fillColor=none;strokeColor=#000000;strokeWidth=2;fontColor=#000000;fontStyle=1;fontFamily=Verdana;" vertex="1" parent="1">
          <mxGeometry x="442" y="823" width="100" height="40" as="geometry" />
        </mxCell>
        <mxCell id="sMQmqNVfr5RTIaXLuekj-4" value="id_pegawai" style="ellipse;whiteSpace=wrap;html=1;align=center;fontStyle=4;fontFamily=Verdana;fontColor=#000000;fillColor=none;strokeColor=#000000;" vertex="1" parent="1">
          <mxGeometry x="247" y="707" width="100" height="40" as="geometry" />
        </mxCell>
        <mxCell id="sMQmqNVfr5RTIaXLuekj-5" value="nip" style="ellipse;whiteSpace=wrap;html=1;align=center;fillColor=none;strokeColor=#000000;fontFamily=Verdana;fontStyle=0;fontColor=#000000;" vertex="1" parent="1">
          <mxGeometry x="245" y="765" width="100" height="40" as="geometry" />
        </mxCell>
        <mxCell id="sMQmqNVfr5RTIaXLuekj-6" value="nama" style="ellipse;whiteSpace=wrap;html=1;align=center;fillColor=none;strokeColor=#000000;fontFamily=Verdana;fontStyle=0;fontColor=#000000;" vertex="1" parent="1">
          <mxGeometry x="247" y="829" width="100" height="40" as="geometry" />
        </mxCell>
        <mxCell id="sMQmqNVfr5RTIaXLuekj-7" value="sat_kerja_id" style="ellipse;whiteSpace=wrap;html=1;align=center;fillColor=none;strokeColor=#000000;fontFamily=Verdana;fontStyle=0;fontColor=#000000;" vertex="1" parent="1">
          <mxGeometry x="247" y="893" width="100" height="40" as="geometry" />
        </mxCell>
        <mxCell id="sMQmqNVfr5RTIaXLuekj-18" style="rounded=0;orthogonalLoop=1;jettySize=auto;html=1;exitX=0;exitY=0.5;exitDx=0;exitDy=0;entryX=1;entryY=0.5;entryDx=0;entryDy=0;strokeColor=#000000;endArrow=none;endFill=0;" edge="1" parent="1" source="sMQmqNVfr5RTIaXLuekj-12" target="sMQmqNVfr5RTIaXLuekj-16">
          <mxGeometry relative="1" as="geometry" />
        </mxCell>
        <mxCell id="sMQmqNVfr5RTIaXLuekj-19" style="rounded=0;orthogonalLoop=1;jettySize=auto;html=1;exitX=0;exitY=0.5;exitDx=0;exitDy=0;entryX=1;entryY=0.5;entryDx=0;entryDy=0;strokeColor=#000000;endArrow=none;endFill=0;" edge="1" parent="1" source="sMQmqNVfr5RTIaXLuekj-12" target="sMQmqNVfr5RTIaXLuekj-17">
          <mxGeometry relative="1" as="geometry" />
        </mxCell>
        <mxCell id="sMQmqNVfr5RTIaXLuekj-12" value="satuan_kerja" style="whiteSpace=wrap;html=1;align=center;fillColor=none;strokeColor=#000000;strokeWidth=2;fontColor=#000000;fontStyle=1;fontFamily=Verdana;" vertex="1" parent="1">
          <mxGeometry x="442" y="1093" width="100" height="40" as="geometry" />
        </mxCell>
        <mxCell id="sMQmqNVfr5RTIaXLuekj-15" style="rounded=0;orthogonalLoop=1;jettySize=auto;html=1;exitX=0.5;exitY=1;exitDx=0;exitDy=0;entryX=0.5;entryY=0;entryDx=0;entryDy=0;endArrow=none;endFill=0;strokeColor=#000000;" edge="1" parent="1" source="sMQmqNVfr5RTIaXLuekj-13" target="sMQmqNVfr5RTIaXLuekj-12">
          <mxGeometry relative="1" as="geometry" />
        </mxCell>
        <mxCell id="sMQmqNVfr5RTIaXLuekj-13" value="memiliki" style="shape=rhombus;perimeter=rhombusPerimeter;whiteSpace=wrap;html=1;align=center;strokeColor=#000000;fillColor=none;fontColor=#000000;strokeWidth=2;fontStyle=1;fontFamily=Verdana;" vertex="1" parent="1">
          <mxGeometry x="432" y="943" width="120" height="60" as="geometry" />
        </mxCell>
        <mxCell id="sMQmqNVfr5RTIaXLuekj-16" value="id_sat_kerja" style="ellipse;whiteSpace=wrap;html=1;align=center;fontStyle=4;fontFamily=Verdana;fontColor=#000000;fillColor=none;strokeColor=#000000;" vertex="1" parent="1">
          <mxGeometry x="245" y="1062.5" width="100" height="40" as="geometry" />
        </mxCell>
        <mxCell id="sMQmqNVfr5RTIaXLuekj-17" value="satuan_kerja" style="ellipse;whiteSpace=wrap;html=1;align=center;fillColor=none;strokeColor=#000000;fontFamily=Verdana;fontStyle=0;fontColor=#000000;" vertex="1" parent="1">
          <mxGeometry x="245" y="1123.5" width="100" height="40" as="geometry" />
        </mxCell>
        <mxCell id="sMQmqNVfr5RTIaXLuekj-38" style="rounded=0;orthogonalLoop=1;jettySize=auto;html=1;exitX=1;exitY=0.5;exitDx=0;exitDy=0;entryX=0;entryY=0.5;entryDx=0;entryDy=0;endArrow=none;endFill=0;strokeColor=#000000;" edge="1" parent="1" source="sMQmqNVfr5RTIaXLuekj-20" target="sMQmqNVfr5RTIaXLuekj-37">
          <mxGeometry relative="1" as="geometry" />
        </mxCell>
        <mxCell id="sMQmqNVfr5RTIaXLuekj-20" value="pengajuan" style="whiteSpace=wrap;html=1;align=center;fillColor=none;strokeColor=#000000;strokeWidth=2;fontColor=#000000;fontStyle=1;fontFamily=Verdana;" vertex="1" parent="1">
          <mxGeometry x="813" y="823" width="100" height="40" as="geometry" />
        </mxCell>
        <mxCell id="sMQmqNVfr5RTIaXLuekj-23" style="rounded=0;orthogonalLoop=1;jettySize=auto;html=1;exitX=1;exitY=0.5;exitDx=0;exitDy=0;entryX=0;entryY=0.5;entryDx=0;entryDy=0;endArrow=none;endFill=0;strokeColor=#000000;" edge="1" parent="1" source="sMQmqNVfr5RTIaXLuekj-21" target="sMQmqNVfr5RTIaXLuekj-20">
          <mxGeometry relative="1" as="geometry" />
        </mxCell>
        <mxCell id="sMQmqNVfr5RTIaXLuekj-21" value="memiliki" style="shape=rhombus;perimeter=rhombusPerimeter;whiteSpace=wrap;html=1;align=center;strokeColor=#000000;fillColor=none;fontColor=#000000;strokeWidth=2;fontStyle=1;fontFamily=Verdana;" vertex="1" parent="1">
          <mxGeometry x="615" y="813" width="120" height="60" as="geometry" />
        </mxCell>
        <mxCell id="sMQmqNVfr5RTIaXLuekj-29" style="rounded=0;orthogonalLoop=1;jettySize=auto;html=1;exitX=0.5;exitY=0;exitDx=0;exitDy=0;entryX=0.5;entryY=1;entryDx=0;entryDy=0;endArrow=none;endFill=0;strokeColor=#000000;" edge="1" parent="1" source="sMQmqNVfr5RTIaXLuekj-24" target="sMQmqNVfr5RTIaXLuekj-20">
          <mxGeometry relative="1" as="geometry" />
        </mxCell>
        <mxCell id="sMQmqNVfr5RTIaXLuekj-24" value="no_pengajuan" style="ellipse;whiteSpace=wrap;html=1;align=center;fontStyle=4;fontFamily=Verdana;fontColor=#000000;fillColor=none;strokeColor=#000000;" vertex="1" parent="1">
          <mxGeometry x="648" y="940" width="100" height="40" as="geometry" />
        </mxCell>
        <mxCell id="sMQmqNVfr5RTIaXLuekj-31" style="rounded=0;orthogonalLoop=1;jettySize=auto;html=1;exitX=0.5;exitY=0;exitDx=0;exitDy=0;entryX=0.5;entryY=1;entryDx=0;entryDy=0;endArrow=none;endFill=0;strokeColor=#000000;" edge="1" parent="1" source="sMQmqNVfr5RTIaXLuekj-25" target="sMQmqNVfr5RTIaXLuekj-20">
          <mxGeometry relative="1" as="geometry" />
        </mxCell>
        <mxCell id="sMQmqNVfr5RTIaXLuekj-25" value="tanggal_awal" style="ellipse;whiteSpace=wrap;html=1;align=center;fillColor=none;strokeColor=#000000;fontFamily=Verdana;fontStyle=0;fontColor=#000000;" vertex="1" parent="1">
          <mxGeometry x="717" y="1003" width="100" height="40" as="geometry" />
        </mxCell>
        <mxCell id="sMQmqNVfr5RTIaXLuekj-33" style="rounded=0;orthogonalLoop=1;jettySize=auto;html=1;exitX=0.5;exitY=0;exitDx=0;exitDy=0;entryX=0.5;entryY=1;entryDx=0;entryDy=0;endArrow=none;endFill=0;strokeColor=#000000;" edge="1" parent="1" source="sMQmqNVfr5RTIaXLuekj-26" target="sMQmqNVfr5RTIaXLuekj-20">
          <mxGeometry relative="1" as="geometry" />
        </mxCell>
        <mxCell id="sMQmqNVfr5RTIaXLuekj-26" value="tanggal_akhir" style="ellipse;whiteSpace=wrap;html=1;align=center;fillColor=none;strokeColor=#000000;fontFamily=Verdana;fontStyle=0;fontColor=#000000;" vertex="1" parent="1">
          <mxGeometry x="813" y="1015" width="100" height="40" as="geometry" />
        </mxCell>
        <mxCell id="sMQmqNVfr5RTIaXLuekj-35" style="rounded=0;orthogonalLoop=1;jettySize=auto;html=1;exitX=0;exitY=0.5;exitDx=0;exitDy=0;entryX=0.5;entryY=1;entryDx=0;entryDy=0;endArrow=none;endFill=0;strokeColor=#000000;" edge="1" parent="1" source="sMQmqNVfr5RTIaXLuekj-27" target="sMQmqNVfr5RTIaXLuekj-20">
          <mxGeometry relative="1" as="geometry" />
        </mxCell>
        <mxCell id="sMQmqNVfr5RTIaXLuekj-27" value="id_pegawai" style="ellipse;whiteSpace=wrap;html=1;align=center;fillColor=none;strokeColor=#000000;fontFamily=Verdana;fontStyle=0;fontColor=#000000;" vertex="1" parent="1">
          <mxGeometry x="920" y="1007" width="100" height="40" as="geometry" />
        </mxCell>
        <mxCell id="sMQmqNVfr5RTIaXLuekj-34" style="rounded=0;orthogonalLoop=1;jettySize=auto;html=1;exitX=0;exitY=0.5;exitDx=0;exitDy=0;entryX=0.5;entryY=1;entryDx=0;entryDy=0;endArrow=none;endFill=0;strokeColor=#000000;" edge="1" parent="1" source="sMQmqNVfr5RTIaXLuekj-28" target="sMQmqNVfr5RTIaXLuekj-20">
          <mxGeometry relative="1" as="geometry" />
        </mxCell>
        <mxCell id="sMQmqNVfr5RTIaXLuekj-28" value="id_status" style="ellipse;whiteSpace=wrap;html=1;align=center;fillColor=none;strokeColor=#000000;fontFamily=Verdana;fontStyle=0;fontColor=#000000;" vertex="1" parent="1">
          <mxGeometry x="958" y="936" width="100" height="40" as="geometry" />
        </mxCell>
        <mxCell id="sMQmqNVfr5RTIaXLuekj-42" style="rounded=0;orthogonalLoop=1;jettySize=auto;html=1;exitX=0.5;exitY=1;exitDx=0;exitDy=0;entryX=0.5;entryY=0;entryDx=0;entryDy=0;endArrow=none;endFill=0;strokeColor=#000000;" edge="1" parent="1" source="sMQmqNVfr5RTIaXLuekj-36" target="sMQmqNVfr5RTIaXLuekj-40">
          <mxGeometry relative="1" as="geometry" />
        </mxCell>
        <mxCell id="sMQmqNVfr5RTIaXLuekj-43" style="rounded=0;orthogonalLoop=1;jettySize=auto;html=1;exitX=0.5;exitY=1;exitDx=0;exitDy=0;entryX=0;entryY=0.5;entryDx=0;entryDy=0;endArrow=none;endFill=0;strokeColor=#000000;" edge="1" parent="1" source="sMQmqNVfr5RTIaXLuekj-36" target="sMQmqNVfr5RTIaXLuekj-41">
          <mxGeometry relative="1" as="geometry" />
        </mxCell>
        <mxCell id="sMQmqNVfr5RTIaXLuekj-36" value="status" style="whiteSpace=wrap;html=1;align=center;fillColor=none;strokeColor=#000000;strokeWidth=2;fontColor=#000000;fontStyle=1;fontFamily=Verdana;" vertex="1" parent="1">
          <mxGeometry x="1202" y="823" width="100" height="40" as="geometry" />
        </mxCell>
        <mxCell id="sMQmqNVfr5RTIaXLuekj-39" style="rounded=0;orthogonalLoop=1;jettySize=auto;html=1;exitX=1;exitY=0.5;exitDx=0;exitDy=0;entryX=0;entryY=0.5;entryDx=0;entryDy=0;endArrow=none;endFill=0;strokeColor=#000000;" edge="1" parent="1" source="sMQmqNVfr5RTIaXLuekj-37" target="sMQmqNVfr5RTIaXLuekj-36">
          <mxGeometry relative="1" as="geometry" />
        </mxCell>
        <mxCell id="sMQmqNVfr5RTIaXLuekj-37" value="terdapat" style="shape=rhombus;perimeter=rhombusPerimeter;whiteSpace=wrap;html=1;align=center;strokeColor=#000000;fillColor=none;fontColor=#000000;strokeWidth=2;fontStyle=1;fontFamily=Verdana;" vertex="1" parent="1">
          <mxGeometry x="1016" y="813" width="120" height="60" as="geometry" />
        </mxCell>
        <mxCell id="sMQmqNVfr5RTIaXLuekj-40" value="id_status" style="ellipse;whiteSpace=wrap;html=1;align=center;fontStyle=4;fontFamily=Verdana;fontColor=#000000;fillColor=none;strokeColor=#000000;" vertex="1" parent="1">
          <mxGeometry x="1162" y="940" width="100" height="40" as="geometry" />
        </mxCell>
        <mxCell id="sMQmqNVfr5RTIaXLuekj-41" value="status" style="ellipse;whiteSpace=wrap;html=1;align=center;fillColor=none;strokeColor=#000000;fontFamily=Verdana;fontStyle=0;fontColor=#000000;" vertex="1" parent="1">
          <mxGeometry x="1305" y="920" width="100" height="40" as="geometry" />
        </mxCell>
      </root>
    </mxGraphModel>
  </diagram>
</mxfile>
